STARTFONT 2.1
COMMENT
COMMENT Converted from OpenType font "..\ttf\ITC Avant Garde Gothic CE Book.otf" by "otf2bdf.exe 3.0".
COMMENT
FONT -FreeType-AvantGarde CE-Medium-R-Normal--42-300-100-100-P-195-ISO10646-1
SIZE 30 100 100
FONTBOUNDINGBOX 50 50 -2 -9
STARTPROPERTIES 19
FOUNDRY "FreeType"
FAMILY_NAME "AvantGarde CE"
WEIGHT_NAME "Medium"
SLANT "R"
SETWIDTH_NAME "Normal"
ADD_STYLE_NAME ""
PIXEL_SIZE 42
POINT_SIZE 300
RESOLUTION_X 100
RESOLUTION_Y 100
SPACING "P"
AVERAGE_WIDTH 195
CHARSET_REGISTRY "ISO10646"
CHARSET_ENCODING "1"
FONT_ASCENT 31
FONT_DESCENT 8
COPYRIGHT "Copyright (c) 1985, 1987, 1989, 1990, 1991, 1992, 1997 Adobe Systems Incorporated.  All Rights Reserved.ITC Avant Garde Gothic is a registered trademark of International Typeface Corporation."
_OTF_FONTFILE "..\ttf\ITC Avant Garde Gothic CE Book.otf"
_OTF_PSNAME "AvantGardeCE-Book"
ENDPROPERTIES
CHARS 260
STARTCHAR 0020
ENCODING 32
SWIDTH 288 0
DWIDTH 12 0
BBX 0 0 0 0
BITMAP
ENDCHAR
STARTCHAR 0021
ENCODING 33
SWIDTH 288 0
DWIDTH 12 0
BBX 3 31 5 0
BITMAP
E0
E0
E0
E0
E0
E0
E0
E0
E0
E0
E0
E0
E0
E0
E0
E0
E0
E0
E0
E0
E0
E0
E0
00
00
00
E0
E0
E0
E0
E0
ENDCHAR
STARTCHAR 0022
ENCODING 34
SWIDTH 312 0
DWIDTH 13 0
BBX 9 12 2 18
BITMAP
E380
E380
E380
E380
E380
E380
E380
E380
E380
E380
E380
E380
ENDCHAR
STARTCHAR 0023
ENCODING 35
SWIDTH 552 0
DWIDTH 23 0
BBX 20 31 1 0
BITMAP
01C1C0
01C1C0
01C180
018380
038380
038380
038380
038380
7FFFF0
7FFFF0
7FFFF0
070700
070700
070700
070700
070700
070600
060E00
0E0E00
FFFFE0
FFFFE0
FFFFE0
0E0E00
0E0E00
0C0C00
0C1C00
1C1C00
1C1C00
1C1C00
1C1C00
1C1C00
ENDCHAR
STARTCHAR 0024
ENCODING 36
SWIDTH 552 0
DWIDTH 23 0
BBX 17 37 3 -3
BITMAP
01C000
01C000
01C000
01E000
0FFC00
1FFE00
3C1F00
380700
700780
700380
700380
700000
700000
780000
3C0000
1F0000
0FE000
07F800
00FE00
001F00
000F00
000780
000380
000380
E00380
E00380
E00380
700700
780700
3C1E00
1FFE00
0FF800
03E000
01C000
01C000
01C000
01C000
ENDCHAR
STARTCHAR 0025
ENCODING 37
SWIDTH 768 0
DWIDTH 32 0
BBX 31 33 1 -1
BITMAP
07C00080
1FF00380
3FF80300
783C0600
701C0600
E00E0C00
E00E1C00
E00E1800
E00E3800
E00E3000
F01E7000
701C6000
7C3CC000
3FF8C000
1FF18000
07C38000
00030000
00070FC0
00063FF0
000E7FF8
000CF87C
0018E01C
0039E01E
0031C00E
0071C00E
0061C00E
00E1C00E
00C0E01E
01C0E01C
03807878
03007FF8
07001FE0
00000780
ENDCHAR
STARTCHAR 0026
ENCODING 38
SWIDTH 768 0
DWIDTH 32 0
BBX 29 33 2 -1
BITMAP
007C0000
01FF0000
03FF8000
0783C000
0701C000
0E00E000
0E00E000
0E00E000
0E00E000
0F01E000
0783C000
07C78000
03FF81C0
01FE03C0
03F80380
0FFC0780
1FBE0700
3E1F0F00
780F8E00
7007DE00
7003FC00
E001FC00
E000F800
E0007C00
E0007E00
E000FF00
7000EF80
7801E7C0
3C03C3E0
3E0F81F0
1FFF00F8
07FE0070
01F80020
ENDCHAR
STARTCHAR 0027
ENCODING 39
SWIDTH 192 0
DWIDTH 8 0
BBX 3 12 3 18
BITMAP
E0
E0
E0
E0
E0
E0
E0
E0
E0
E0
E0
E0
ENDCHAR
STARTCHAR 0028
ENCODING 40
SWIDTH 360 0
DWIDTH 15 0
BBX 13 41 2 -9
BITMAP
0008
0038
00F8
01F0
03E0
07C0
0780
0F00
1E00
1C00
3C00
3800
7800
7000
7000
7000
E000
E000
E000
E000
E000
E000
E000
E000
E000
7000
7000
7000
7800
3800
3C00
1C00
1E00
0F00
0780
07C0
03E0
01F0
00F8
0038
0018
ENDCHAR
STARTCHAR 0029
ENCODING 41
SWIDTH 360 0
DWIDTH 15 0
BBX 13 40 0 -8
BITMAP
E000
F000
F800
3C00
1E00
0F00
0780
03C0
03C0
01E0
00E0
00F0
0070
0070
0070
0038
0038
0038
0038
0038
0038
0038
0038
0038
0078
0070
0070
00F0
00E0
00E0
01C0
03C0
0780
0700
0F00
3E00
7C00
F800
E000
C000
ENDCHAR
STARTCHAR 002A
ENCODING 42
SWIDTH 432 0
DWIDTH 18 0
BBX 13 12 3 18
BITMAP
0700
0700
0700
8700
F778
FFF8
1FC0
0F80
1FC0
3DC0
38E0
3060
ENDCHAR
STARTCHAR 002B
ENCODING 43
SWIDTH 600 0
DWIDTH 25 0
BBX 21 21 2 1
BITMAP
007000
007000
007000
007000
007000
007000
007000
007000
007000
FFFFF8
FFFFF8
FFFFF8
007000
007000
007000
007000
007000
007000
007000
007000
007000
ENDCHAR
STARTCHAR 002C
ENCODING 44
SWIDTH 288 0
DWIDTH 12 0
BBX 7 8 1 -3
BITMAP
0E
1C
1C
38
38
70
70
E0
ENDCHAR
STARTCHAR 002D
ENCODING 45
SWIDTH 336 0
DWIDTH 14 0
BBX 11 3 1 10
BITMAP
FFE0
FFE0
FFE0
ENDCHAR
STARTCHAR 002E
ENCODING 46
SWIDTH 288 0
DWIDTH 12 0
BBX 3 5 4 1
BITMAP
E0
E0
E0
E0
E0
ENDCHAR
STARTCHAR 002F
ENCODING 47
SWIDTH 432 0
DWIDTH 18 0
BBX 15 35 2 -5
BITMAP
000E
001C
001C
001C
0038
0038
0038
0070
0070
0070
00E0
00E0
00E0
01C0
01C0
01C0
0380
0380
0380
0700
0700
0700
0E00
0E00
0E00
1C00
1C00
1C00
3800
3800
3800
7000
7000
7000
E000
ENDCHAR
STARTCHAR 0030
ENCODING 48
SWIDTH 552 0
DWIDTH 23 0
BBX 21 33 1 -1
BITMAP
00F800
07FF00
0FFF80
1F07C0
3C01E0
7800F0
700070
700070
E00038
E00038
E00038
E00038
E00038
E00038
E00038
E00038
E00038
E00038
E00038
E00038
E00038
E00038
E00038
E00038
E00038
700070
700070
7800F0
3C01E0
1F07C0
0FFF80
07FF00
00F800
ENDCHAR
STARTCHAR 0031
ENCODING 49
SWIDTH 552 0
DWIDTH 23 0
BBX 8 31 6 0
BITMAP
FF
FF
FF
07
07
07
07
07
07
07
07
07
07
07
07
07
07
07
07
07
07
07
07
07
07
07
07
07
07
07
07
ENDCHAR
STARTCHAR 0032
ENCODING 50
SWIDTH 552 0
DWIDTH 23 0
BBX 19 32 2 0
BITMAP
01F000
07FE00
1FFF00
3E0F80
3803C0
7001C0
7001C0
E000E0
E000E0
E000E0
E000E0
0000E0
0001E0
0001C0
0003C0
000780
000700
000E00
001E00
003C00
007000
00E000
01C000
038000
070000
0E0000
1C0000
380000
700000
FFFFE0
FFFFE0
FFFFE0
ENDCHAR
STARTCHAR 0033
ENCODING 51
SWIDTH 552 0
DWIDTH 23 0
BBX 20 33 1 -1
BITMAP
00F000
03FE00
0FFF00
0F0F80
1C0380
1C03C0
3801C0
3801C0
3801C0
0001C0
0003C0
000380
000F80
00FF00
00FE00
00FF80
0007C0
0003C0
0001E0
0000E0
000070
000070
E00070
E00070
E00070
E00070
7000E0
7800E0
3C01C0
3F0780
1FFF00
07FE00
00F800
ENDCHAR
STARTCHAR 0034
ENCODING 52
SWIDTH 552 0
DWIDTH 23 0
BBX 21 31 1 0
BITMAP
0003C0
0007C0
0007C0
000FC0
001FC0
001DC0
003DC0
0079C0
0071C0
00F1C0
01E1C0
01C1C0
03C1C0
0781C0
0701C0
0F01C0
1E01C0
1C01C0
3C01C0
7801C0
7001C0
F001C0
FFFFF8
FFFFF8
FFFFF8
0001C0
0001C0
0001C0
0001C0
0001C0
0001C0
ENDCHAR
STARTCHAR 0035
ENCODING 53
SWIDTH 552 0
DWIDTH 23 0
BBX 21 32 1 -1
BITMAP
07FFC0
0FFFC0
0FFFC0
0E0000
0E0000
0E0000
1C0000
1C0000
1C0000
1C0000
1CFC00
1FFF00
3FFF80
3F03C0
3C01E0
3800F0
000070
000070
000038
000038
000038
E00038
E00038
F00038
700070
780070
3800E0
3C01E0
1F07C0
0FFF80
07FF00
00F800
ENDCHAR
STARTCHAR 0036
ENCODING 54
SWIDTH 552 0
DWIDTH 23 0
BBX 21 32 1 -1
BITMAP
001E00
003C00
003800
007000
00F000
00E000
01C000
03C000
038000
070000
0FFC00
0FFF00
1FFF80
3E03C0
3C01E0
7800F0
700070
700070
E00038
E00038
E00038
E00038
E00038
E00038
700070
700070
7800E0
3C01E0
1F07C0
0FFF80
07FF00
00F800
ENDCHAR
STARTCHAR 0037
ENCODING 55
SWIDTH 552 0
DWIDTH 23 0
BBX 18 31 3 0
BITMAP
FFFFC0
FFFFC0
FFFFC0
0003C0
000380
000380
000700
000700
000E00
000E00
001E00
001C00
003C00
003800
007800
007000
007000
00E000
00E000
01C000
01C000
03C000
038000
078000
070000
0F0000
0E0000
0E0000
1C0000
1C0000
380000
ENDCHAR
STARTCHAR 0038
ENCODING 56
SWIDTH 552 0
DWIDTH 23 0
BBX 20 33 2 -1
BITMAP
00F000
03FC00
0FFF00
0F0F00
1C0380
3C0380
3801C0
3801C0
3801C0
3801C0
3C03C0
1C0380
1F0F80
0FFF00
07FE00
0FFF00
1E0F80
3C03C0
7801E0
7000E0
E00070
E00070
E00070
E00070
E00070
E00070
7000E0
7801E0
3C03C0
1F0780
0FFF00
07FE00
01F800
ENDCHAR
STARTCHAR 0039
ENCODING 57
SWIDTH 552 0
DWIDTH 23 0
BBX 21 32 1 0
BITMAP
00F800
07FF00
0FFF80
1F07C0
3C01E0
7800F0
700070
700070
E00038
E00038
E00038
E00038
E00038
E00038
F00070
700070
7800F0
3C01E0
1E03E0
0FFFC0
07FF80
01FF80
000700
000E00
001E00
003C00
003800
007800
00F000
00E000
01E000
03C000
ENDCHAR
STARTCHAR 003A
ENCODING 58
SWIDTH 288 0
DWIDTH 12 0
BBX 3 23 4 0
BITMAP
E0
E0
E0
E0
E0
00
00
00
00
00
00
00
00
00
00
00
00
00
E0
E0
E0
E0
E0
ENDCHAR
STARTCHAR 003B
ENCODING 59
SWIDTH 288 0
DWIDTH 12 0
BBX 6 26 1 -3
BITMAP
1C
1C
1C
1C
1C
00
00
00
00
00
00
00
00
00
00
00
00
00
1C
38
38
70
70
70
E0
E0
ENDCHAR
STARTCHAR 003C
ENCODING 60
SWIDTH 600 0
DWIDTH 25 0
BBX 21 22 2 0
BITMAP
000008
000038
0000F8
0003F0
001FC0
007E00
01F800
07E000
1F8000
FE0000
F80000
F00000
FE0000
1F8000
07E000
01F800
007E00
001F80
0007F0
0000F8
000038
000008
ENDCHAR
STARTCHAR 003D
ENCODING 61
SWIDTH 600 0
DWIDTH 25 0
BBX 21 11 2 5
BITMAP
FFFFF8
FFFFF8
FFFFF8
000000
000000
000000
000000
000000
FFFFF8
FFFFF8
FFFFF8
ENDCHAR
STARTCHAR 003E
ENCODING 62
SWIDTH 600 0
DWIDTH 25 0
BBX 21 22 2 0
BITMAP
800000
E00000
F80000
7F0000
1FC000
03F000
00FC00
003F00
000FC0
0003F8
0000F8
000078
0003F8
000FC0
003F00
00FC00
03F000
0FC000
7F0000
F80000
E00000
800000
ENDCHAR
STARTCHAR 003F
ENCODING 63
SWIDTH 600 0
DWIDTH 25 0
BBX 19 32 3 0
BITMAP
01F000
07FE00
1FFF00
3E0F80
3803C0
7001C0
7001E0
E000E0
E000E0
E000E0
0000E0
0000E0
0001C0
0003C0
000780
000F00
001E00
003C00
003800
007000
007000
00E000
00E000
00E000
000000
000000
000000
00E000
00E000
00E000
00E000
00E000
ENDCHAR
STARTCHAR 0040
ENCODING 64
SWIDTH 864 0
DWIDTH 36 0
BBX 31 33 3 -1
BITMAP
000FF800
007FFE00
01FFFF80
03F00FC0
07C001E0
0F0000F0
1E000078
3C00003C
3807C01C
781FF31C
703FF71E
70783F0E
E0701E0E
E0E00E0E
E0E00E0E
E1C00E0E
E1C00E0E
E1C00E0E
E1C00C1C
E1C01C1C
E1E01C1C
70E03C38
70F07C78
787FEFF0
383FC7E0
3C0F0380
1E000000
0F000000
07C00000
03F803E0
01FFFFC0
007FFF00
0007F000
ENDCHAR
STARTCHAR 0041
ENCODING 65
SWIDTH 744 0
DWIDTH 31 0
BBX 30 31 1 0
BITMAP
00078000
00078000
000FC000
000FC000
001FE000
001CE000
003CF000
00387000
00387000
00707800
00703800
00F03C00
00E01C00
01E01E00
01C01E00
01C00E00
03C00F00
03800700
07FFFF80
07FFFF80
0FFFFFC0
0E0003C0
0E0001C0
1E0001E0
1C0000E0
3C0000F0
38000070
78000078
70000078
70000038
E000003C
ENDCHAR
STARTCHAR 0042
ENCODING 66
SWIDTH 576 0
DWIDTH 24 0
BBX 20 31 3 0
BITMAP
FFF000
FFFE00
FFFF00
E00F80
E00780
E003C0
E001C0
E001C0
E001C0
E001C0
E003C0
E00380
E00F80
FFFF00
FFFE00
FFFF80
E00FC0
E001E0
E000E0
E000F0
E00070
E00070
E00070
E00070
E00070
E000E0
E001E0
E003C0
FFFF80
FFFF00
FFF800
ENDCHAR
STARTCHAR 0043
ENCODING 67
SWIDTH 816 0
DWIDTH 34 0
BBX 30 33 2 -1
BITMAP
0007E000
003FFC00
00FFFF00
03F81FC0
07C003E0
0F8001F0
1E000078
1C000078
3C00003C
38000000
70000000
70000000
70000000
E0000000
E0000000
E0000000
E0000000
E0000000
E0000000
E0000000
F0000000
70000000
70000000
78000000
3C00001C
1C000038
1E000078
0F8000F0
07C003E0
03F80FC0
00FFFF00
003FFC00
0007E000
ENDCHAR
STARTCHAR 0044
ENCODING 68
SWIDTH 744 0
DWIDTH 31 0
BBX 26 31 3 0
BITMAP
FFFC0000
FFFF8000
FFFFE000
E003F000
E000FC00
E0003C00
E0001E00
E0000F00
E0000700
E0000380
E0000380
E00003C0
E00001C0
E00001C0
E00001C0
E00001C0
E00001C0
E00001C0
E00001C0
E0000180
E0000380
E0000380
E0000700
E0000F00
E0000E00
E0003C00
E0007800
E003F000
FFFFE000
FFFF8000
FFFC0000
ENDCHAR
STARTCHAR 0045
ENCODING 69
SWIDTH 528 0
DWIDTH 22 0
BBX 17 31 3 0
BITMAP
FFFF80
FFFF80
FFFF80
E00000
E00000
E00000
E00000
E00000
E00000
E00000
E00000
E00000
E00000
E00000
FFFF00
FFFF00
FFFF00
E00000
E00000
E00000
E00000
E00000
E00000
E00000
E00000
E00000
E00000
E00000
FFFF80
FFFF80
FFFF80
ENDCHAR
STARTCHAR 0046
ENCODING 70
SWIDTH 480 0
DWIDTH 20 0
BBX 15 31 3 0
BITMAP
FFFE
FFFE
FFFE
E000
E000
E000
E000
E000
E000
E000
E000
E000
E000
E000
FFFE
FFFE
FFFE
E000
E000
E000
E000
E000
E000
E000
E000
E000
E000
E000
E000
E000
E000
ENDCHAR
STARTCHAR 0047
ENCODING 71
SWIDTH 864 0
DWIDTH 36 0
BBX 33 33 2 -1
BITMAP
0007F00000
003FFE0000
00FFFF8000
01F80FC000
07C003F000
0F8000F800
0E00007800
1C00003C00
3C00001E00
3800000000
7000000000
7000000000
7000000000
E000000000
E000000000
E000000000
E000000000
E000000000
E00FFFFF80
E00FFFFF80
F00FFFFF00
7000000700
7000000F00
3800000E00
3C00001E00
1C00003C00
1E00007800
0F8000F800
07C001F000
03F80FC000
00FFFF8000
003FFE0000
0007F00000
ENDCHAR
STARTCHAR 0048
ENCODING 72
SWIDTH 672 0
DWIDTH 28 0
BBX 22 31 3 0
BITMAP
E0001C
E0001C
E0001C
E0001C
E0001C
E0001C
E0001C
E0001C
E0001C
E0001C
E0001C
E0001C
E0001C
FFFFFC
FFFFFC
FFFFFC
E0001C
E0001C
E0001C
E0001C
E0001C
E0001C
E0001C
E0001C
E0001C
E0001C
E0001C
E0001C
E0001C
E0001C
E0001C
ENDCHAR
STARTCHAR 0049
ENCODING 73
SWIDTH 216 0
DWIDTH 9 0
BBX 3 31 3 0
BITMAP
E0
E0
E0
E0
E0
E0
E0
E0
E0
E0
E0
E0
E0
E0
E0
E0
E0
E0
E0
E0
E0
E0
E0
E0
E0
E0
E0
E0
E0
E0
E0
ENDCHAR
STARTCHAR 004A
ENCODING 74
SWIDTH 480 0
DWIDTH 20 0
BBX 16 32 1 -1
BITMAP
0007
0007
0007
0007
0007
0007
0007
0007
0007
0007
0007
0007
0007
0007
0007
0007
0007
0007
0007
0007
0007
0007
0007
0007
E007
E007
E00F
F00E
7C3E
3FFC
1FF8
03C0
ENDCHAR
STARTCHAR 004B
ENCODING 75
SWIDTH 600 0
DWIDTH 25 0
BBX 21 31 3 0
BITMAP
E00078
E000F0
E001E0
E003C0
E003C0
E00780
E00F00
E01E00
E03C00
E03800
E07800
E0F000
E1E000
E3C000
E38000
E78000
EFC000
FFE000
FCF000
F8F000
F87800
F03C00
E01E00
E00E00
E00F00
E00780
E003C0
E001C0
E001E0
E000F0
E00078
ENDCHAR
STARTCHAR 004C
ENCODING 76
SWIDTH 456 0
DWIDTH 19 0
BBX 16 31 3 0
BITMAP
E000
E000
E000
E000
E000
E000
E000
E000
E000
E000
E000
E000
E000
E000
E000
E000
E000
E000
E000
E000
E000
E000
E000
E000
E000
E000
E000
E000
FFFF
FFFF
FFFF
ENDCHAR
STARTCHAR 004D
ENCODING 77
SWIDTH 912 0
DWIDTH 38 0
BBX 32 31 3 0
BITMAP
F800001F
F800001F
FC00003F
FC00003F
EE00007F
EE000077
EF000077
E70000E7
E70000E7
E38001C7
E38001C7
E3C003C7
E1C00387
E1E00387
E0E00707
E0E00707
E0700E07
E0700E07
E0781E07
E0381C07
E03C1C07
E01C3807
E01C3807
E01E7807
E00E7007
E00FF007
E007E007
E007E007
E003C007
E003C007
E003C007
ENDCHAR
STARTCHAR 004E
ENCODING 78
SWIDTH 744 0
DWIDTH 31 0
BBX 25 31 3 0
BITMAP
F0000380
F8000380
FC000380
FE000380
EE000380
EF000380
E7800380
E3800380
E3C00380
E1E00380
E0E00380
E0F00380
E0780380
E0380380
E01C0380
E01E0380
E00F0380
E0070380
E0078380
E003C380
E001C380
E001E380
E000F380
E0007380
E0007B80
E0003F80
E0001F80
E0000F80
E0000F80
E0000780
E0000380
ENDCHAR
STARTCHAR 004F
ENCODING 79
SWIDTH 864 0
DWIDTH 36 0
BBX 32 33 2 -1
BITMAP
0007E000
003FFC00
00FFFF00
03F01FC0
07C003E0
0F0001F0
1E000078
1C000038
3C00003C
3800001E
7000000E
7000000E
7000000F
E0000007
E0000007
E0000007
E0000007
E0000007
E0000007
E0000007
F0000007
7000000E
7000000E
3800001C
3C00001C
1C000038
1E000078
0F8000F0
07C003E0
03F80FC0
00FFFF00
003FFC00
0007E000
ENDCHAR
STARTCHAR 0050
ENCODING 80
SWIDTH 600 0
DWIDTH 25 0
BBX 20 31 3 0
BITMAP
FFF800
FFFF00
FFFF80
E007C0
E001E0
E000E0
E000F0
E00070
E00070
E00070
E00070
E00070
E000F0
E000E0
E001E0
E007C0
FFFF80
FFFF00
FFF800
E00000
E00000
E00000
E00000
E00000
E00000
E00000
E00000
E00000
E00000
E00000
E00000
ENDCHAR
STARTCHAR 0051
ENCODING 81
SWIDTH 864 0
DWIDTH 36 0
BBX 33 33 2 -1
BITMAP
0007F00000
003FFE0000
00FFFF8000
03F80FE000
07C001F000
0F8000F800
1E00003C00
1C00001C00
3C00001E00
3800000E00
7000000700
7000000700
7000000700
E000000380
E000000380
E000000380
E000000380
E000000380
E000000380
E3FC000380
7FFF800700
7FFFF00700
7C03F80700
38007E0E00
3C001F1E00
1E000FBC00
1F0007FC00
0F8001F800
07C001F000
03F80FFC00
00FFFFBF00
003FFE1F00
0007F00300
ENDCHAR
STARTCHAR 0052
ENCODING 82
SWIDTH 600 0
DWIDTH 25 0
BBX 21 31 3 0
BITMAP
FFFC00
FFFF00
FFFFC0
E007E0
E001E0
E00070
E00070
E00038
E00038
E00038
E00038
E00038
E00078
E00070
E000F0
E003E0
E3FFC0
E1FF80
E0FE00
E0F000
E07800
E03C00
E01C00
E01E00
E00F00
E00780
E00780
E003C0
E001E0
E000E0
E000F0
ENDCHAR
STARTCHAR 0053
ENCODING 83
SWIDTH 504 0
DWIDTH 21 0
BBX 19 33 1 -1
BITMAP
01F000
07FC00
0FFE00
1E0F00
3C0780
380380
7003C0
7001C0
7001C0
700000
700000
780000
3C0000
3F0000
1FE000
07FC00
01FE00
003F80
000780
0003C0
0001C0
0000E0
0000E0
0000E0
E000E0
E000E0
7001C0
7001C0
7803C0
3E0F80
1FFF00
0FFC00
01F000
ENDCHAR
STARTCHAR 0054
ENCODING 84
SWIDTH 432 0
DWIDTH 18 0
BBX 17 31 0 0
BITMAP
FFFF80
FFFF80
FFFF80
01C000
01C000
01C000
01C000
01C000
01C000
01C000
01C000
01C000
01C000
01C000
01C000
01C000
01C000
01C000
01C000
01C000
01C000
01C000
01C000
01C000
01C000
01C000
01C000
01C000
01C000
01C000
01C000
ENDCHAR
STARTCHAR 0055
ENCODING 85
SWIDTH 648 0
DWIDTH 27 0
BBX 21 32 3 -1
BITMAP
E00038
E00038
E00038
E00038
E00038
E00038
E00038
E00038
E00038
E00038
E00038
E00038
E00038
E00038
E00038
E00038
E00038
E00038
E00038
E00038
E00038
E00038
E00038
E00038
700070
700070
7800F0
3C01E0
1F07C0
0FFF80
07FF00
00F800
ENDCHAR
STARTCHAR 0056
ENCODING 86
SWIDTH 696 0
DWIDTH 29 0
BBX 28 31 1 0
BITMAP
E00000F0
E00000E0
F00000E0
700001E0
780001C0
380003C0
38000380
1C000380
1C000700
1E000700
0E000F00
0F000E00
07000E00
07001C00
07801C00
03803C00
03C03800
01C03800
01C07000
01E07000
00E0F000
00F0E000
0070E000
0071C000
0079C000
003B8000
003F8000
001F8000
001F0000
000F0000
000E0000
ENDCHAR
STARTCHAR 0057
ENCODING 87
SWIDTH 960 0
DWIDTH 40 0
BBX 39 31 0 0
BITMAP
E00038000E
E00038001E
70007C001C
70007C001C
70007C001C
7800FC0038
3800EE0038
3800EE0038
3800EE0078
1C01CE0070
1C01C70070
1C01C70070
1E01C700E0
0E038380E0
0E038380E0
0E038380E0
07030381C0
070701C1C0
070701C1C0
078701C380
038E01E380
038E00E380
038E00E380
01CE00E700
01DC00F700
01DC007700
01DC007E00
00FC007E00
00F8003E00
00F8003E00
00F8003C00
ENDCHAR
STARTCHAR 0058
ENCODING 88
SWIDTH 600 0
DWIDTH 25 0
BBX 25 31 0 0
BITMAP
78000F00
38000E00
3C001E00
1E003C00
0E003800
0F007800
0780F000
0380E000
03C1E000
01E3C000
01E38000
00F78000
007F0000
007E0000
003E0000
003E0000
003E0000
007F0000
00F78000
00E38000
01E3C000
03C1E000
0380E000
0780F000
0F007800
0E003800
1E003C00
3C001E00
38000E00
78000F00
F0000780
ENDCHAR
STARTCHAR 0059
ENCODING 89
SWIDTH 600 0
DWIDTH 25 0
BBX 24 31 1 0
BITMAP
E0000F
E0000E
70001C
70001C
380038
380038
1C0070
1C0070
0E00E0
0E01E0
0701C0
0703C0
038380
038780
01C700
01CF00
00EE00
00FE00
007C00
007C00
003800
003800
003800
003800
003800
003800
003800
003800
003800
003800
003800
ENDCHAR
STARTCHAR 005A
ENCODING 90
SWIDTH 480 0
DWIDTH 20 0
BBX 19 31 1 0
BITMAP
FFFFE0
FFFFE0
FFFFE0
0001E0
0003C0
000380
000780
000700
000F00
001E00
001C00
003C00
003800
007000
00F000
00E000
01E000
01C000
038000
078000
070000
0F0000
1E0000
1C0000
3C0000
380000
780000
F00000
FFFFE0
FFFFE0
FFFFE0
ENDCHAR
STARTCHAR 005B
ENCODING 91
SWIDTH 360 0
DWIDTH 15 0
BBX 8 39 6 -8
BITMAP
01
07
0F
1E
3C
78
70
70
E0
E0
E0
E0
E0
E0
E0
E0
E0
E0
E0
E0
E0
E0
E0
E0
E0
E0
E0
E0
E0
E0
E0
60
70
78
3C
3E
1F
07
03
ENDCHAR
STARTCHAR 005C
ENCODING 92
SWIDTH 600 0
DWIDTH 25 0
BBX 15 35 5 -5
BITMAP
E000
F000
7000
7000
7800
3800
3800
3C00
1C00
1C00
1E00
0E00
0E00
0F00
0700
0700
0380
0380
0380
01C0
01C0
01C0
00E0
00E0
00E0
0070
0070
0070
0038
0038
0038
001C
001C
001C
000E
ENDCHAR
STARTCHAR 005D
ENCODING 93
SWIDTH 360 0
DWIDTH 15 0
BBX 8 39 1 -8
BITMAP
80
E0
F0
78
3C
1E
0E
0E
07
07
07
07
07
07
07
07
07
07
07
07
07
07
07
07
07
07
07
07
07
07
07
06
0E
1E
3C
78
F8
E0
C0
ENDCHAR
STARTCHAR 005E
ENCODING 94
SWIDTH 600 0
DWIDTH 25 0
BBX 21 18 2 12
BITMAP
007000
00F800
00F800
01DC00
01DC00
038E00
038E00
070700
070700
0E0380
0E0380
1C01C0
1C01C0
3800E0
3800E0
700070
700070
E00038
ENDCHAR
STARTCHAR 005F
ENCODING 95
SWIDTH 504 0
DWIDTH 21 0
BBX 21 3 0 -5
BITMAP
FFFFF8
FFFFF8
FFFFF8
ENDCHAR
STARTCHAR 0060
ENCODING 96
SWIDTH 384 0
DWIDTH 16 0
BBX 10 7 3 26
BITMAP
4000
7000
FC00
3F00
0FC0
0780
0180
ENDCHAR
STARTCHAR 0061
ENCODING 97
SWIDTH 672 0
DWIDTH 28 0
BBX 24 25 2 -1
BITMAP
007E00
01FF87
07FFE7
0F81F7
1E007F
3C003F
38001F
70000F
70000F
E00007
E00007
E00007
E00007
E00007
E00007
E00007
70000F
70000F
78001F
3C003F
1E007F
0F81F7
07FFE7
03FF87
007E00
ENDCHAR
STARTCHAR 0062
ENCODING 98
SWIDTH 672 0
DWIDTH 28 0
BBX 24 32 3 -1
BITMAP
E00000
E00000
E00000
E00000
E00000
E00000
E00000
E07E00
E1FFC0
E7FFE0
EF81F0
FE0078
FC003C
F8001E
F0000E
F0000E
E00007
E00007
E00007
E00007
E00007
E00007
E00007
F0000E
F0000E
F8001E
FC003C
FE0078
EF81F0
E7FFE0
E1FF80
007E00
ENDCHAR
STARTCHAR 0063
ENCODING 99
SWIDTH 648 0
DWIDTH 27 0
BBX 24 25 2 -1
BITMAP
003E00
01FFC0
07FFF0
0F81F8
1E007C
3C001C
38001E
70000E
700000
E00000
E00000
E00000
E00000
E00000
E00000
E00000
700000
70000F
38000E
3C001C
1E003C
0F80F8
07FFF0
01FFC0
007E00
ENDCHAR
STARTCHAR 0064
ENCODING 100
SWIDTH 696 0
DWIDTH 29 0
BBX 24 32 2 -1
BITMAP
000007
000007
000007
000007
000007
000007
000007
007E07
01FF87
07FFE7
0F81F7
1E007F
3C003F
38001F
70000F
70000F
E00007
E00007
E00007
E00007
E00007
E00007
E00007
70000F
70000F
78001F
3C003F
1E007F
0F81F7
07FFE7
03FF87
007E00
ENDCHAR
STARTCHAR 0065
ENCODING 101
SWIDTH 648 0
DWIDTH 27 0
BBX 24 25 2 -1
BITMAP
007C00
03FF80
07FFE0
0F83F0
1E00F8
3C0038
38001C
70001C
70000E
E0000E
E0000E
FFFFFE
FFFFFF
FFFFFF
E00000
E00000
600000
70001E
78001C
3C0038
1E0078
0F81F0
07FFE0
03FF80
007C00
ENDCHAR
STARTCHAR 0066
ENCODING 102
SWIDTH 312 0
DWIDTH 13 0
BBX 12 32 1 0
BITMAP
0070
03F0
07F0
0F80
0E00
1E00
1C00
1C00
1C00
FFF0
FFF0
FFF0
1C00
1C00
1C00
1C00
1C00
1C00
1C00
1C00
1C00
1C00
1C00
1C00
1C00
1C00
1C00
1C00
1C00
1C00
1C00
1C00
ENDCHAR
STARTCHAR 0067
ENCODING 103
SWIDTH 672 0
DWIDTH 28 0
BBX 23 33 2 -9
BITMAP
007C00
03FF8E
07FFCE
0F83EE
1E00FE
3C007E
38003E
70001E
70001E
E0000E
E0000E
E0000E
E0000E
E0000E
E0000E
E0000E
70001E
70001E
78003E
3C007E
1E00FE
0F83EE
07FFCE
03FF8E
007C0E
70001E
38001C
3C003C
1E0078
1F80F8
07FFF0
03FFC0
007F00
ENDCHAR
STARTCHAR 0068
ENCODING 104
SWIDTH 600 0
DWIDTH 25 0
BBX 20 31 3 0
BITMAP
E00000
E00000
E00000
E00000
E00000
E00000
E00000
E0F800
E7FE00
EFFF80
FE0FC0
FC03C0
F801E0
F000E0
F000F0
E00070
E00070
E00070
E00070
E00070
E00070
E00070
E00070
E00070
E00070
E00070
E00070
E00070
E00070
E00070
E00070
ENDCHAR
STARTCHAR 0069
ENCODING 105
SWIDTH 192 0
DWIDTH 8 0
BBX 3 31 3 0
BITMAP
E0
E0
E0
E0
E0
00
00
00
E0
E0
E0
E0
E0
E0
E0
E0
E0
E0
E0
E0
E0
E0
E0
E0
E0
E0
E0
E0
E0
E0
E0
ENDCHAR
STARTCHAR 006A
ENCODING 106
SWIDTH 192 0
DWIDTH 8 0
BBX 8 39 -2 -8
BITMAP
07
07
07
07
07
00
00
00
07
07
07
07
07
07
07
07
07
07
07
07
07
07
07
07
07
07
07
07
07
07
07
07
07
07
0E
1E
FC
F8
E0
ENDCHAR
STARTCHAR 006B
ENCODING 107
SWIDTH 504 0
DWIDTH 21 0
BBX 17 31 3 0
BITMAP
E00000
E00000
E00000
E00000
E00000
E00000
E00000
E00000
E00780
E00F00
E00E00
E01E00
E03C00
E07800
E07000
E0F000
E1E000
E3C000
E38000
E70000
EF8000
FFC000
FDE000
F8F000
F87000
F03800
E03C00
E01E00
E00F00
E00780
E00380
ENDCHAR
STARTCHAR 006C
ENCODING 108
SWIDTH 192 0
DWIDTH 8 0
BBX 3 31 3 0
BITMAP
E0
E0
E0
E0
E0
E0
E0
E0
E0
E0
E0
E0
E0
E0
E0
E0
E0
E0
E0
E0
E0
E0
E0
E0
E0
E0
E0
E0
E0
E0
E0
ENDCHAR
STARTCHAR 006D
ENCODING 109
SWIDTH 936 0
DWIDTH 39 0
BBX 33 24 3 0
BITMAP
01E003C000
E7FC0FF800
EFFE3FFC00
FC1F7C3E00
F807700F00
F003E00700
F003E00780
E001C00380
E001C00380
E001C00380
E001C00380
E001C00380
E001C00380
E001C00380
E001C00380
E001C00380
E001C00380
E001C00380
E001C00380
E001C00380
E001C00380
E001C00380
E001C00380
E001C00380
ENDCHAR
STARTCHAR 006E
ENCODING 110
SWIDTH 600 0
DWIDTH 25 0
BBX 20 24 3 0
BITMAP
00F800
E7FE00
EFFF80
FE0FC0
FC03C0
F801E0
F000E0
F000F0
E00070
E00070
E00070
E00070
E00070
E00070
E00070
E00070
E00070
E00070
E00070
E00070
E00070
E00070
E00070
E00070
ENDCHAR
STARTCHAR 006F
ENCODING 111
SWIDTH 648 0
DWIDTH 27 0
BBX 24 25 2 -1
BITMAP
007E00
01FF80
07FFE0
0F81F0
1E0078
3C003C
38001C
70000E
70000E
E00007
E00007
E00007
E00007
E00007
E00007
E00007
70000E
70000E
38001C
3C003C
1E0078
0F81F0
07FFE0
01FF80
007E00
ENDCHAR
STARTCHAR 0070
ENCODING 112
SWIDTH 672 0
DWIDTH 28 0
BBX 24 32 3 -8
BITMAP
007E00
E1FFC0
E7FFE0
EF81F0
FE0078
FC003C
F8001C
F0000E
F0000E
E00007
E00007
E00007
E00007
E00007
E00007
E00007
F0000E
F0000E
F8001C
FC003C
FE0078
EF81F0
E7FFE0
E1FF80
E07E00
E00000
E00000
E00000
E00000
E00000
E00000
E00000
ENDCHAR
STARTCHAR 0071
ENCODING 113
SWIDTH 672 0
DWIDTH 28 0
BBX 24 32 2 -8
BITMAP
007E00
01FF87
07FFE7
0F81F7
1E007F
3C003F
38001F
70000F
70000F
E00007
E00007
E00007
E00007
E00007
E00007
E00007
70000F
70000F
78001F
3C003F
1E007F
0F81F7
07FFE7
03FF87
007E07
000007
000007
000007
000007
000007
000007
000007
ENDCHAR
STARTCHAR 0072
ENCODING 114
SWIDTH 312 0
DWIDTH 13 0
BBX 9 23 3 0
BITMAP
E380
EF80
EF80
FC00
F800
F000
F000
E000
E000
E000
E000
E000
E000
E000
E000
E000
E000
E000
E000
E000
E000
E000
E000
ENDCHAR
STARTCHAR 0073
ENCODING 115
SWIDTH 384 0
DWIDTH 16 0
BBX 14 25 1 -1
BITMAP
0780
1FE0
3FF0
3870
7038
7038
7038
7000
7800
3C00
3F00
1FE0
07F0
01F8
0078
003C
001C
E01C
E01C
E01C
7038
7878
3FF0
1FE0
0780
ENDCHAR
STARTCHAR 0074
ENCODING 116
SWIDTH 336 0
DWIDTH 14 0
BBX 13 31 0 0
BITMAP
0700
0700
0700
0700
0700
0700
0700
0700
FFF8
FFF8
FFF8
0700
0700
0700
0700
0700
0700
0700
0700
0700
0700
0700
0700
0700
0700
0700
0700
0700
0700
0700
0700
ENDCHAR
STARTCHAR 0075
ENCODING 117
SWIDTH 600 0
DWIDTH 25 0
BBX 20 24 3 -1
BITMAP
E00070
E00070
E00070
E00070
E00070
E00070
E00070
E00070
E00070
E00070
E00070
E00070
E00070
E00070
E00070
E00070
E000F0
7000F0
7001F0
7803F0
3E0770
1FFF70
0FFC70
01F000
ENDCHAR
STARTCHAR 0076
ENCODING 118
SWIDTH 552 0
DWIDTH 23 0
BBX 22 23 0 0
BITMAP
E0001C
E00038
700038
700078
780070
380070
3800E0
1C00E0
1C01C0
1E01C0
0E03C0
0E0380
070380
070700
038700
038F00
03CE00
01DE00
01DC00
00FC00
00F800
007800
007800
ENDCHAR
STARTCHAR 0077
ENCODING 119
SWIDTH 840 0
DWIDTH 35 0
BBX 33 23 2 0
BITMAP
E000000380
E000000700
E000000700
7001C00700
7003C00E00
7003C00E00
3803E00E00
3807E01C00
1C07E01C00
1C07703800
1C0E703800
0E0E703800
0E0E387000
0E0C387000
071C387000
071C18E000
03981CE000
03B81DC000
03B80DC000
01F00FC000
01F00F8000
01F00F8000
00E0070000
ENDCHAR
STARTCHAR 0078
ENCODING 120
SWIDTH 480 0
DWIDTH 20 0
BBX 19 23 1 0
BITMAP
F001E0
7803C0
380380
3C0780
1E0F00
0E0E00
0F1E00
07BC00
03B800
01F000
01F000
00E000
01F000
03F800
03B800
071C00
0F1E00
0E0E00
1C0700
3C0780
380380
7001C0
F001E0
ENDCHAR
STARTCHAR 0079
ENCODING 121
SWIDTH 528 0
DWIDTH 22 0
BBX 21 31 1 -8
BITMAP
E00038
700070
700070
7000F0
3800E0
3800E0
1C01C0
1C01C0
1C0380
0E0380
0E0380
070700
070700
070E00
038E00
039C00
01DC00
01DC00
01F800
00F800
00F000
007000
006000
00E000
00E000
01C000
01C000
038000
038000
038000
070000
ENDCHAR
STARTCHAR 007A
ENCODING 122
SWIDTH 432 0
DWIDTH 18 0
BBX 17 23 0 0
BITMAP
FFFF00
FFFF00
FFFF00
000F00
001E00
001C00
003C00
007800
007000
00E000
01E000
03C000
038000
078000
0F0000
0E0000
1C0000
3C0000
780000
700000
FFFF80
FFFF80
FFFF80
ENDCHAR
STARTCHAR 007B
ENCODING 123
SWIDTH 360 0
DWIDTH 15 0
BBX 11 39 3 -8
BITMAP
03E0
07E0
07E0
0E00
0E00
0E00
0E00
0E00
0E00
0E00
0E00
0E00
0E00
0E00
0E00
0E00
1C00
3C00
F800
E000
F800
3C00
1E00
0E00
0E00
0E00
0E00
0E00
0E00
0E00
0E00
0E00
0E00
0E00
0E00
0F00
07E0
07E0
03E0
ENDCHAR
STARTCHAR 007C
ENCODING 124
SWIDTH 672 0
DWIDTH 28 0
BBX 3 42 12 -9
BITMAP
E0
E0
E0
E0
E0
E0
E0
E0
E0
E0
E0
E0
E0
E0
E0
E0
E0
E0
E0
E0
E0
E0
E0
E0
E0
E0
E0
E0
E0
E0
E0
E0
E0
E0
E0
E0
E0
E0
E0
E0
E0
E0
ENDCHAR
STARTCHAR 007D
ENCODING 125
SWIDTH 360 0
DWIDTH 15 0
BBX 11 39 1 -8
BITMAP
F800
FC00
FC00
0E00
0E00
0E00
0E00
0E00
0E00
0E00
0E00
0E00
0E00
0E00
0E00
0F00
0700
0780
03E0
00E0
03E0
0780
0F00
0E00
0E00
0E00
0E00
0E00
0E00
0E00
0E00
0E00
0E00
0E00
0E00
1E00
FC00
FC00
F800
ENDCHAR
STARTCHAR 007E
ENCODING 126
SWIDTH 600 0
DWIDTH 25 0
BBX 19 6 3 8
BITMAP
1E0000
3FC060
7FF0E0
E0FFC0
C03FC0
400F00
ENDCHAR
STARTCHAR 00A0
ENCODING 160
SWIDTH 288 0
DWIDTH 12 0
BBX 0 0 0 0
BITMAP
ENDCHAR
STARTCHAR 00A3
ENCODING 163
SWIDTH 552 0
DWIDTH 23 0
BBX 23 32 0 0
BITMAP
007C00
01FF80
07FFC0
0F83E0
0E00F0
1C0070
1C0038
380038
380038
380000
380000
380000
380000
1C0000
FFFFC0
FFFFC0
FFFFC0
078000
03C000
01E000
00E00E
00F00E
00700E
00700E
00700E
00700E
00701C
00E03C
00E078
7FFFF0
7FFFE0
7FFF00
ENDCHAR
STARTCHAR 00A4
ENCODING 164
SWIDTH 552 0
DWIDTH 23 0
BBX 22 23 1 2
BITMAP
400008
E0001C
F07838
79FE70
3FFFE0
1F87E0
0E01C0
1C00E0
1C00E0
380070
380070
380070
380070
380070
1C00E0
1C00E0
0E01C0
0F03C0
1FFFE0
39FE70
70F838
E0001C
400008
ENDCHAR
STARTCHAR 00A6
ENCODING 166
SWIDTH 672 0
DWIDTH 28 0
BBX 3 36 12 -6
BITMAP
E0
E0
E0
E0
E0
E0
E0
E0
E0
E0
E0
E0
E0
E0
E0
00
00
00
00
00
00
E0
E0
E0
E0
E0
E0
E0
E0
E0
E0
E0
E0
E0
E0
E0
ENDCHAR
STARTCHAR 00A7
ENCODING 167
SWIDTH 624 0
DWIDTH 26 0
BBX 18 38 4 -6
BITMAP
01E000
07FC00
0FFE00
1E1E00
3C0F00
380700
380000
380000
380000
3C0000
1E0000
1F8000
3FE000
71F800
70FE00
E03F00
E00F80
E00380
E001C0
F001C0
7801C0
3E01C0
1F8380
07E380
01FF00
007E00
001F00
000F00
000780
700380
700380
700380
380380
380700
3E0F00
1FFE00
0FFC00
03F000
ENDCHAR
STARTCHAR 00A8
ENCODING 168
SWIDTH 360 0
DWIDTH 15 0
BBX 9 5 3 27
BITMAP
E380
E380
E380
E380
E380
ENDCHAR
STARTCHAR 00A9
ENCODING 169
SWIDTH 744 0
DWIDTH 31 0
BBX 31 33 0 -1
BITMAP
000FE000
007FFC00
01FFFF00
03E00F80
078003C0
0E0000E0
1C07C070
381FF038
383FF838
70783C1C
60E00E0C
60C0060C
E1C0070E
C1800006
C1800006
C1800006
C1800006
C1800006
C1800006
C1C00006
E0C0060E
60E00E0C
70781E0C
707FFC1C
381FF838
3C07E038
1E000070
0F0001E0
078003C0
03F01F80
01FFFE00
007FFC00
000FE000
ENDCHAR
STARTCHAR 00AB
ENCODING 171
SWIDTH 432 0
DWIDTH 18 0
BBX 14 17 2 3
BITMAP
0818
0E1C
1C38
1C38
3870
3870
70E0
F0E0
E1C0
F0E0
70E0
3870
3870
1C38
1C38
0E1C
0810
ENDCHAR
STARTCHAR 00AC
ENCODING 172
SWIDTH 600 0
DWIDTH 25 0
BBX 21 12 2 4
BITMAP
FFFFF8
FFFFF8
FFFFF8
000038
000038
000038
000038
000038
000038
000038
000038
000038
ENDCHAR
STARTCHAR 00AD
ENCODING 173
SWIDTH 336 0
DWIDTH 14 0
BBX 11 3 1 10
BITMAP
FFE0
FFE0
FFE0
ENDCHAR
STARTCHAR 00AE
ENCODING 174
SWIDTH 744 0
DWIDTH 31 0
BBX 31 33 0 -1
BITMAP
000FF000
007FFC00
01FFFF00
03E00FC0
078003E0
0E0000E0
1C000070
387FF038
307FFC18
707FFC1C
60600E0C
6060060E
C0600606
C0600606
C0600E06
C07FFC06
C07FF006
C07FFC06
C0601E06
E0600E06
E060060E
6060060C
7060060C
3060061C
38600638
1C600630
1E000070
0F0001E0
07C003C0
03F01F80
00FFFF00
003FFC00
0007E000
ENDCHAR
STARTCHAR 00B0
ENCODING 176
SWIDTH 408 0
DWIDTH 17 0
BBX 12 13 2 18
BITMAP
0F00
3FC0
7FE0
70E0
E070
C030
C030
C030
E070
70E0
7FE0
3FC0
0F00
ENDCHAR
STARTCHAR 00B1
ENCODING 177
SWIDTH 600 0
DWIDTH 25 0
BBX 21 22 2 0
BITMAP
007000
007000
007000
007000
007000
007000
007000
FFFFF8
FFFFF8
FFFFF8
007000
007000
007000
007000
007000
007000
007000
000000
000000
FFFFF8
FFFFF8
FFFFF8
ENDCHAR
STARTCHAR 00B4
ENCODING 180
SWIDTH 384 0
DWIDTH 16 0
BBX 10 7 3 27
BITMAP
0080
0380
0FC0
3F00
FC00
7000
4000
ENDCHAR
STARTCHAR 00B5
ENCODING 181
SWIDTH 600 0
DWIDTH 25 0
BBX 19 31 3 -9
BITMAP
E000E0
E000E0
E000E0
E000E0
E000E0
E000E0
E000E0
E000E0
E000E0
E000E0
E000E0
E000E0
E000E0
E000E0
E000E0
E000E0
F000E0
F001E0
F801E0
FC03E0
FE0FE0
EFFEE0
E7FCE0
E1F000
E00000
E00000
E00000
E00000
E00000
E00000
E00000
ENDCHAR
STARTCHAR 00B6
ENCODING 182
SWIDTH 576 0
DWIDTH 24 0
BBX 23 36 1 -5
BITMAP
03FFFE
1FFFFE
3FF070
7FF070
7FF070
FFF070
FFF070
FFF070
FFF070
FFF070
FFF070
FFF070
7FF070
3FF070
1FF070
0FF070
007070
007070
007070
007070
007070
007070
007070
007070
007070
007070
007070
007070
007070
007070
007070
007070
007070
007070
007070
007070
ENDCHAR
STARTCHAR 00B7
ENCODING 183
SWIDTH 288 0
DWIDTH 12 0
BBX 3 5 4 8
BITMAP
E0
E0
E0
E0
E0
ENDCHAR
STARTCHAR 00B8
ENCODING 184
SWIDTH 336 0
DWIDTH 14 0
BBX 7 9 4 -9
BITMAP
20
60
60
FC
46
06
C6
FC
78
ENDCHAR
STARTCHAR 00BB
ENCODING 187
SWIDTH 432 0
DWIDTH 18 0
BBX 14 17 2 3
BITMAP
60C0
E1C0
70E0
70E0
3870
3870
1C38
1C38
0E1C
1C38
1C38
3870
3870
70E0
70E0
E1C0
6040
ENDCHAR
STARTCHAR 00C1
ENCODING 193
SWIDTH 744 0
DWIDTH 31 0
BBX 30 40 1 0
BITMAP
00002000
0000E000
0001F000
0007E000
001F8000
001E0000
00180000
00000000
00000000
00078000
00078000
000FC000
000FC000
001FE000
001CE000
003CE000
00387000
00387000
00707800
00703800
00F03C00
00E01C00
01E01C00
01C01E00
01C00E00
03C00F00
03800700
07FFFF80
07FFFF80
0FFFFFC0
0E0003C0
0E0001C0
1E0001E0
1C0000E0
3C0000F0
38000070
38000078
70000078
70000038
E000003C
ENDCHAR
STARTCHAR 00C2
ENCODING 194
SWIDTH 744 0
DWIDTH 31 0
BBX 30 39 1 0
BITMAP
00078000
000FC000
001EE000
00787800
00F03C00
00000000
00000000
00000000
00078000
00078000
000FC000
000FC000
001FE000
001CE000
003CF000
00387000
00387000
00707800
00703800
00F03C00
00E01C00
01E01E00
01C01E00
01C00E00
03C00F00
03800700
07FFFF80
07FFFF80
0FFFFFC0
0E0003C0
0E0001C0
1E0001E0
1C0000E0
3C0000F0
38000070
38000078
70000078
70000038
E000003C
ENDCHAR
STARTCHAR 00C4
ENCODING 196
SWIDTH 744 0
DWIDTH 31 0
BBX 29 39 1 0
BITMAP
0038E000
0038E000
0038E000
0038E000
0038E000
00000000
00000000
00000000
00070000
000F8000
000F8000
001FC000
001DC000
003DC000
0038E000
0038E000
0070F000
00707000
00F07800
00E03800
01E03800
01C03C00
01C01C00
03C01E00
03800E00
07800F00
07FFFF00
07FFFF00
0FFFFF80
0E000380
1E0003C0
1C0001C0
3C0001E0
380001E0
380000E0
700000F0
70000070
F0000078
E0000038
ENDCHAR
STARTCHAR 00C7
ENCODING 199
SWIDTH 816 0
DWIDTH 34 0
BBX 30 41 2 -9
BITMAP
0007F000
003FFE00
00FFFF80
03F80FC0
07C003E0
0F8000F0
1E000078
1E00003C
3C00001C
38000000
70000000
70000000
70000000
E0000000
E0000000
E0000000
E0000000
E0000000
E0000000
E0000000
F0000000
70000000
70000000
78000000
3C00001C
1C00003C
1E000078
0F8000F0
07C003E0
03F80FC0
00FFFF00
003FFE00
0007E000
00030000
00030000
0007E000
00003000
00003000
00063000
0007E000
0003C000
ENDCHAR
STARTCHAR 00C9
ENCODING 201
SWIDTH 528 0
DWIDTH 22 0
BBX 17 40 3 0
BITMAP
001000
003800
00F800
03F000
0FC000
0F0000
0C0000
000000
000000
FFFF80
FFFF80
FFFF80
E00000
E00000
E00000
E00000
E00000
E00000
E00000
E00000
E00000
E00000
E00000
FFFF00
FFFF00
FFFF00
E00000
E00000
E00000
E00000
E00000
E00000
E00000
E00000
E00000
E00000
E00000
FFFF80
FFFF80
FFFF80
ENDCHAR
STARTCHAR 00CB
ENCODING 203
SWIDTH 528 0
DWIDTH 22 0
BBX 17 39 3 0
BITMAP
0E3800
0E3800
0E3800
0E3800
0E3800
000000
000000
000000
FFFF80
FFFF80
FFFF80
E00000
E00000
E00000
E00000
E00000
E00000
E00000
E00000
E00000
E00000
E00000
FFFF00
FFFF00
FFFF00
E00000
E00000
E00000
E00000
E00000
E00000
E00000
E00000
E00000
E00000
E00000
FFFF80
FFFF80
FFFF80
ENDCHAR
STARTCHAR 00CD
ENCODING 205
SWIDTH 216 0
DWIDTH 9 0
BBX 9 40 2 0
BITMAP
0100
0380
0F80
3F00
FC00
F000
4000
0000
0000
7000
7000
7000
7000
7000
7000
7000
7000
7000
7000
7000
7000
7000
7000
7000
7000
7000
7000
7000
7000
7000
7000
7000
7000
7000
7000
7000
7000
7000
7000
7000
ENDCHAR
STARTCHAR 00CE
ENCODING 206
SWIDTH 216 0
DWIDTH 9 0
BBX 13 39 -2 0
BITMAP
0700
1FC0
3DE0
78F0
F038
0000
0000
0000
0700
0700
0700
0700
0700
0700
0700
0700
0700
0700
0700
0700
0700
0700
0700
0700
0700
0700
0700
0700
0700
0700
0700
0700
0700
0700
0700
0700
0700
0700
0700
ENDCHAR
STARTCHAR 00D3
ENCODING 211
SWIDTH 864 0
DWIDTH 36 0
BBX 32 41 2 0
BITMAP
00000C00
00001C00
00007E00
0001F800
0007E000
00038000
00020000
00000000
0007E000
003FFC00
00FFFF00
03F01FC0
07C003E0
0F0001F0
1E000078
1C000038
3C00003C
3800001E
7000000E
7000000E
7000000F
E0000007
E0000007
E0000007
E0000007
E0000007
E0000007
E0000007
F0000007
7000000E
7000000E
3800001C
3C00001C
1C000038
1E000078
0F8000F0
07C003E0
03F80FC0
00FFFF00
003FFC00
0007E000
ENDCHAR
STARTCHAR 00D4
ENCODING 212
SWIDTH 864 0
DWIDTH 36 0
BBX 32 40 2 -1
BITMAP
0003C000
0007E000
000F7000
001C3C00
00781E00
00000000
00000000
0007E000
003FFC00
00FFFF00
03F01FC0
07C003E0
0F0001F0
1E000078
1C000038
3C00003C
3800001E
7000000E
7000000E
7000000F
E0000007
E0000007
E0000007
E0000007
E0000007
E0000007
E0000007
F0000007
7000000E
7000000E
3800001C
3C00001C
1C000038
1E000078
0F8000F0
07C003E0
03F80FC0
00FFFF00
003FFC00
0007E000
ENDCHAR
STARTCHAR 00D5
ENCODING 213
SWIDTH 864 0
DWIDTH 36 0
BBX 32 40 2 -1
BITMAP
000E0000
003F8400
007FFE00
0031FE00
00207800
00000000
00000000
0007E000
003FFC00
00FFFF00
03F01FC0
07C003E0
0F0001F0
1E000078
1C000038
3C00003C
3800001E
7000000E
7000000E
7000000F
E0000007
E0000007
E0000007
E0000007
E0000007
E0000007
E0000007
F0000007
7000000E
7000000E
3800001C
3C00001C
1C000038
1E000078
0F8000F0
07C003E0
03F80FC0
00FFFF00
003FFC00
0007E000
ENDCHAR
STARTCHAR 00D6
ENCODING 214
SWIDTH 864 0
DWIDTH 36 0
BBX 32 40 2 -1
BITMAP
001C3800
001C3800
001C3800
001C3800
001C3800
00000000
00000000
0007E000
003FFC00
00FFFF00
03F81FC0
07C003E0
0F0001F0
1E000078
1C000038
3C00003C
3800001E
7000000E
7000000E
7000000F
E0000007
E0000007
E0000007
E0000007
E0000007
E0000007
E0000007
F0000007
7000000E
7000000E
3800001C
3C00001C
1C000038
1E000078
0F8000F0
07C003E0
03F80FC0
00FFFF00
003FFC00
0007E000
ENDCHAR
STARTCHAR 00D7
ENCODING 215
SWIDTH 600 0
DWIDTH 25 0
BBX 19 19 3 1
BITMAP
400080
F001E0
7803C0
3C0780
1E0F00
0F1E00
07BC00
03F800
01F000
01F000
03F800
07BC00
0F1E00
1E0F00
3C0780
7803C0
F001E0
E000E0
400040
ENDCHAR
STARTCHAR 00DA
ENCODING 218
SWIDTH 648 0
DWIDTH 27 0
BBX 21 40 3 0
BITMAP
000700
001F00
007E00
01F800
01E000
00C000
000000
000000
E00038
E00038
E00038
E00038
E00038
E00038
E00038
E00038
E00038
E00038
E00038
E00038
E00038
E00038
E00038
E00038
E00038
E00038
E00038
E00038
E00038
E00038
E00038
E00038
700070
700070
7800F0
3C01E0
1F07C0
0FFF80
07FF00
00F800
ENDCHAR
STARTCHAR 00DC
ENCODING 220
SWIDTH 648 0
DWIDTH 27 0
BBX 21 40 3 -1
BITMAP
038E00
038E00
038E00
038E00
038E00
000000
000000
000000
E00038
E00038
E00038
E00038
E00038
E00038
E00038
E00038
E00038
E00038
E00038
E00038
E00038
E00038
E00038
E00038
E00038
E00038
E00038
E00038
E00038
E00038
E00038
E00038
700070
700070
7800F0
3C01E0
1F07C0
0FFF80
07FF00
00F800
ENDCHAR
STARTCHAR 00DD
ENCODING 221
SWIDTH 600 0
DWIDTH 25 0
BBX 24 40 1 0
BITMAP
000100
000380
000F80
003F00
00FC00
00F000
006000
000000
000000
E0000F
E0000E
70001C
70001C
380038
380038
1C0070
1C0070
0E00E0
0E01E0
0701C0
0703C0
038380
038780
01C700
01CF00
00EE00
00FE00
007C00
007C00
003800
003800
003800
003800
003800
003800
003800
003800
003800
003800
003800
ENDCHAR
STARTCHAR 00DF
ENCODING 223
SWIDTH 552 0
DWIDTH 23 0
BBX 19 33 3 -1
BITMAP
03E000
0FF800
1FFC00
3C1E00
780F00
700700
F00380
E00380
E00380
E00380
E00380
E00380
E00700
E00F00
E03E00
E1FC00
E1FE00
E1FF00
E00780
E003C0
E001E0
E000E0
E000E0
F800E0
F800E0
F800E0
FC00E0
FC01C0
FE03C0
EF0780
E7FF00
E3FE00
00F800
ENDCHAR
STARTCHAR 00E1
ENCODING 225
SWIDTH 672 0
DWIDTH 28 0
BBX 24 34 2 0
BITMAP
000100
000780
001F80
007E00
00F800
006000
004000
000000
000000
007E00
01FF87
07FFE7
0F81F7
1E007F
3C003F
38001F
70000F
70000F
E00007
E00007
E00007
E00007
E00007
E00007
E00007
70000F
70000F
78001F
3C003F
1E007F
0F81F7
07FFE7
03FF87
007E00
ENDCHAR
STARTCHAR 00E2
ENCODING 226
SWIDTH 672 0
DWIDTH 28 0
BBX 24 33 2 -1
BITMAP
003C00
007F00
00F780
01E3C0
0381E0
000000
000000
000000
007E00
01FF87
07FFE7
0F81F7
1E007F
3C003F
38001F
70000F
70000F
E00007
E00007
E00007
E00007
E00007
E00007
E00007
70000F
70000F
78001F
3C003F
1E007F
0F81F7
07FFE7
03FF87
007E00
ENDCHAR
STARTCHAR 00E4
ENCODING 228
SWIDTH 672 0
DWIDTH 28 0
BBX 24 33 2 -1
BITMAP
00E380
00E380
00E380
00E380
00E380
000000
000000
000000
007E00
01FFC7
07FFE7
0F81F7
1E007F
3C003F
38001F
70000F
70000F
E00007
E00007
E00007
E00007
E00007
E00007
E00007
70000F
70000F
38001F
3C003F
1E007F
0F81F7
07FFE7
01FF87
007E00
ENDCHAR
STARTCHAR 00E7
ENCODING 231
SWIDTH 648 0
DWIDTH 27 0
BBX 23 33 2 -9
BITMAP
007E00
01FFC0
07FFF0
0F81F8
1E007C
3C001C
78001E
70000E
700000
E00000
E00000
E00000
E00000
E00000
E00000
F00000
700000
78000E
3C001C
1E003C
1F80F8
0FFFF0
03FFC0
00FF00
003000
003000
003000
007E00
002300
000300
006300
007E00
003C00
ENDCHAR
STARTCHAR 00E9
ENCODING 233
SWIDTH 648 0
DWIDTH 27 0
BBX 24 34 2 0
BITMAP
000300
000F00
003F00
007C00
01F800
00E000
008000
000000
000000
007C00
03FF80
07FFE0
0F83F0
1E00F8
3C0038
38001C
70001C
70000E
E0000E
E0000E
FFFFFE
FFFFFF
FFFFFF
E00000
E00000
600000
70001E
78001C
3C0038
1E0078
0F81F0
07FFE0
03FF80
007C00
ENDCHAR
STARTCHAR 00EB
ENCODING 235
SWIDTH 648 0
DWIDTH 27 0
BBX 23 33 2 -1
BITMAP
01C700
01C700
01C700
01C700
01C700
000000
000000
000000
007C00
03FF80
07FFC0
0F83E0
1E00F0
3C0078
38003C
70001C
70001E
E0000E
E0000E
FFFFFE
FFFFFE
FFFFFE
E00000
E00000
600000
70001C
78001C
380038
1E00F0
0F83E0
07FFC0
03FF80
007C00
ENDCHAR
STARTCHAR 00ED
ENCODING 237
SWIDTH 192 0
DWIDTH 8 0
BBX 9 33 2 1
BITMAP
0100
0780
1F80
7E00
F800
F000
4000
0000
0000
0000
7000
7000
7000
7000
7000
7000
7000
7000
7000
7000
7000
7000
7000
7000
7000
7000
7000
7000
7000
7000
7000
7000
7000
ENDCHAR
STARTCHAR 00EE
ENCODING 238
SWIDTH 192 0
DWIDTH 8 0
BBX 13 32 -2 0
BITMAP
0700
1FC0
3DE0
78F0
F078
0000
0000
0000
0000
0700
0700
0700
0700
0700
0700
0700
0700
0700
0700
0700
0700
0700
0700
0700
0700
0700
0700
0700
0700
0700
0700
0700
ENDCHAR
STARTCHAR 00F3
ENCODING 243
SWIDTH 648 0
DWIDTH 27 0
BBX 24 34 2 0
BITMAP
000180
0003C0
000FC0
003F00
007C00
007000
000000
000000
000000
007E00
01FF80
07FFE0
0F81F0
1E0078
3C003C
38001C
70000E
70000E
E00007
E00007
E00007
E00007
E00007
E00007
E00007
70000E
70000E
38001C
3C003C
1E0078
0F81F0
07FFE0
01FF80
007E00
ENDCHAR
STARTCHAR 00F4
ENCODING 244
SWIDTH 648 0
DWIDTH 27 0
BBX 24 33 2 -1
BITMAP
003C00
007E00
00F700
03C3C0
0781E0
000000
000000
000000
007E00
01FF80
07FFE0
0F81F0
1E0078
3C003C
38001C
70000E
70000E
E00007
E00007
E00007
E00007
E00007
E00007
E00007
70000E
70000E
38001C
3C003C
1E0078
0F81F0
07FFE0
01FF80
007E00
ENDCHAR
STARTCHAR 00F5
ENCODING 245
SWIDTH 648 0
DWIDTH 27 0
BBX 24 33 2 -1
BITMAP
01E000
07F840
07FFE0
071FE0
000780
000000
000000
000000
007E00
01FF80
07FFE0
0F81F0
1E0078
3C003C
38001C
70000E
70000E
E00007
E00007
E00007
E00007
E00007
E00007
E00007
70000E
70000E
38001C
3C003C
1E0078
0F81F0
07FFE0
01FF80
007E00
ENDCHAR
STARTCHAR 00F6
ENCODING 246
SWIDTH 648 0
DWIDTH 27 0
BBX 24 33 2 -1
BITMAP
01C700
01C700
01C700
01C700
01C700
000000
000000
000000
007C00
03FF80
07FFE0
0F83F0
1E0078
3C003C
38001C
70000E
70000E
E00007
E00007
E00007
E00007
E00007
E00007
E00007
70000E
70000E
78001C
3C003C
1E0078
0F81F0
07FFE0
03FF80
007C00
ENDCHAR
STARTCHAR 00F7
ENCODING 247
SWIDTH 600 0
DWIDTH 25 0
BBX 21 23 2 -1
BITMAP
007000
007000
007000
007000
007000
000000
000000
000000
000000
000000
FFFFF8
FFFFF8
FFFFF8
000000
000000
000000
000000
000000
007000
007000
007000
007000
007000
ENDCHAR
STARTCHAR 00FA
ENCODING 250
SWIDTH 600 0
DWIDTH 25 0
BBX 20 34 3 0
BITMAP
000200
000E00
003F00
00FC00
03F000
01C000
018000
000000
000000
000000
E00070
E00070
E00070
E00070
E00070
E00070
E00070
E00070
E00070
E00070
E00070
E00070
E00070
E00070
E00070
E00070
E000F0
7000F0
7001F0
7803F0
3E0770
1FFF70
0FFC70
01F000
ENDCHAR
STARTCHAR 00FC
ENCODING 252
SWIDTH 600 0
DWIDTH 25 0
BBX 20 33 3 -1
BITMAP
071C00
071C00
071C00
071C00
071C00
000000
000000
000000
000000
E00070
E00070
E00070
E00070
E00070
E00070
E00070
E00070
E00070
E00070
E00070
E00070
E00070
E00070
E00070
E00070
E000F0
7000F0
7001F0
7803F0
3E0F70
1FFF70
0FFC70
03F000
ENDCHAR
STARTCHAR 00FD
ENCODING 253
SWIDTH 528 0
DWIDTH 22 0
BBX 21 41 1 -7
BITMAP
000200
000F00
003F00
007C00
01F800
01E000
008000
000000
000000
000000
E00038
700070
700070
7000F0
3800E0
3800E0
1C01C0
1C01C0
1C0380
0E0380
0E0380
070700
070700
070E00
038E00
039C00
01DC00
01DC00
01F800
00F800
00F000
007000
006000
00E000
00E000
01C000
01C000
038000
038000
038000
070000
ENDCHAR
STARTCHAR 0100
ENCODING 256
SWIDTH 744 0
DWIDTH 31 0
BBX 30 38 1 0
BITMAP
00FFFC00
00FFFC00
00FFFC00
00000000
00000000
00000000
00000000
00078000
00078000
000FC000
000FC000
001FE000
001CE000
003CF000
00387000
00387000
00707800
00703800
00F03C00
00E01C00
01E01E00
01C01E00
01C00E00
03C00F00
03800700
07FFFF80
07FFFF80
0FFFFFC0
0E0003C0
0E0001C0
1E0001E0
1C0000E0
3C0000F0
38000070
38000078
70000078
70000038
E000003C
ENDCHAR
STARTCHAR 0101
ENCODING 257
SWIDTH 672 0
DWIDTH 28 0
BBX 24 32 2 -1
BITMAP
07FFE0
07FFE0
07FFE0
000000
000000
000000
000000
007E00
01FF87
07FFE7
0F81F7
1E007F
3C003F
38001F
70000F
70000F
E00007
E00007
E00007
E00007
E00007
E00007
E00007
70000F
70000F
78001F
3C003F
1E007F
0F81F7
07FFE7
03FF87
007E00
ENDCHAR
STARTCHAR 0102
ENCODING 258
SWIDTH 744 0
DWIDTH 31 0
BBX 30 39 1 0
BITMAP
00E01C00
00F03C00
007FF800
003FF000
000FC000
00000000
00000000
00000000
00078000
00078000
000FC000
000FC000
001FE000
001CE000
003CF000
00387000
00387000
00707800
00703800
00F03C00
00E01C00
01E01E00
01C01E00
01C00E00
03C00F00
03800700
07FFFF80
07FFFF80
0FFFFFC0
0E0003C0
0E0001C0
1E0001E0
1C0000E0
3C0000F0
38000070
38000078
70000078
70000038
E000003C
ENDCHAR
STARTCHAR 0103
ENCODING 259
SWIDTH 672 0
DWIDTH 28 0
BBX 24 33 2 -1
BITMAP
0700E0
03C1E0
01FFC0
00FF80
003E00
000000
000000
000000
007E00
01FF87
07FFE7
0F81F7
1E007F
3C003F
38001F
70000F
70000F
E00007
E00007
E00007
E00007
E00007
E00007
E00007
70000F
70000F
78001F
3C003F
1E007F
0F81F7
07FFE7
03FF87
007E00
ENDCHAR
STARTCHAR 0104
ENCODING 260
SWIDTH 744 0
DWIDTH 31 0
BBX 30 39 1 -8
BITMAP
00070000
000F8000
000F8000
001FC000
001DC000
003DE000
0038E000
0038E000
00707000
00707000
00F07800
00E03800
01E03C00
01C01C00
01C01C00
03C01E00
03800E00
07800F00
07FFFF00
0FFFFF80
0FFFFF80
0E000380
1E0003C0
1C0001C0
3C0001E0
380000E0
380000F0
70000070
70000070
E0000078
E0000038
00000030
00000060
000000C0
000000C0
000000C0
000000E0
0000007C
0000003C
ENDCHAR
STARTCHAR 0105
ENCODING 261
SWIDTH 672 0
DWIDTH 28 0
BBX 24 32 2 -8
BITMAP
007E00
01FF87
07FFE7
0F81F7
1E007F
3C003F
38001F
70000F
70000F
E00007
E00007
E00007
E00007
E00007
E00007
E00007
70000F
70000F
78001F
3C003F
1E007F
0F81F7
07FFE7
03FF87
007E0E
000018
000038
000030
000030
000038
00001F
00000F
ENDCHAR
STARTCHAR 0106
ENCODING 262
SWIDTH 816 0
DWIDTH 34 0
BBX 30 41 2 0
BITMAP
00000C00
00003C00
0000FC00
0001F800
0007E000
00078000
00020000
00000000
0007E000
003FFC00
00FFFF00
03F81FC0
07C003E0
0F8001F0
1E000078
1C000078
3C00003C
38000000
70000000
70000000
70000000
E0000000
E0000000
E0000000
E0000000
E0000000
E0000000
E0000000
F0000000
70000000
70000000
78000000
3C00001C
1C000038
1E000078
0F8000F0
07C003E0
03F80FC0
00FFFF00
003FFC00
0007E000
ENDCHAR
STARTCHAR 0107
ENCODING 263
SWIDTH 648 0
DWIDTH 27 0
BBX 24 34 2 0
BITMAP
000300
000F00
003F00
007C00
01F800
00E000
008000
000000
000000
003E00
01FFC0
07FFF0
0F81F8
1E007C
3C001C
38001E
70000E
700000
E00000
E00000
E00000
E00000
E00000
E00000
E00000
700000
70000F
38000E
3C001C
1E003C
0F80F8
07FFF0
01FFC0
007E00
ENDCHAR
STARTCHAR 010C
ENCODING 268
SWIDTH 816 0
DWIDTH 34 0
BBX 30 40 2 -1
BITMAP
003C1E00
001E3C00
000F7800
0007F000
0003C000
00000000
00000000
0007E000
003FFC00
00FFFF00
03F81FC0
07C003E0
0F8001F0
1E000078
1C000078
3C00003C
38000000
70000000
70000000
70000000
E0000000
E0000000
E0000000
E0000000
E0000000
E0000000
E0000000
F0000000
70000000
70000000
78000000
3C00001C
1C000038
1E000078
0F8000F0
07C003E0
03F80FC0
00FFFF00
003FFC00
0007E000
ENDCHAR
STARTCHAR 010D
ENCODING 269
SWIDTH 648 0
DWIDTH 27 0
BBX 24 33 2 -1
BITMAP
0781C0
03C780
01EF00
00FE00
003C00
000000
000000
000000
003E00
01FFC0
07FFF0
0F81F8
1E007C
3C001C
38001E
70000E
700000
E00000
E00000
E00000
E00000
E00000
E00000
E00000
700000
70000F
38000E
3C001C
1E003C
0F80F8
07FFF0
01FFC0
007E00
ENDCHAR
STARTCHAR 010E
ENCODING 270
SWIDTH 744 0
DWIDTH 31 0
BBX 26 39 3 0
BITMAP
1E078000
0F1E0000
07BC0000
03F80000
00F00000
00000000
00000000
00000000
FFFC0000
FFFF8000
FFFFE000
E003F000
E000FC00
E0003C00
E0001E00
E0000F00
E0000700
E0000380
E0000380
E00003C0
E00001C0
E00001C0
E00001C0
E00001C0
E00001C0
E00001C0
E00001C0
E0000180
E0000380
E0000380
E0000700
E0000F00
E0000E00
E0003C00
E0007800
E003F000
FFFFE000
FFFF8000
FFFC0000
ENDCHAR
STARTCHAR 010F
ENCODING 271
SWIDTH 744 0
DWIDTH 31 0
BBX 31 32 2 -1
BITMAP
0000070E
0000070C
0000071C
0000071C
00000738
00000738
00000770
007E0700
01FF8700
07FFE700
0F81F700
1E007F00
3C003F00
38001F00
70000F00
70000F00
E0000700
E0000700
E0000700
E0000700
E0000700
E0000700
E0000700
70000F00
70000F00
78001F00
3C003F00
1E007F00
0F81F700
07FFE700
03FF8700
007E0000
ENDCHAR
STARTCHAR 0110
ENCODING 272
SWIDTH 792 0
DWIDTH 33 0
BBX 29 31 2 0
BITMAP
1FFF8000
1FFFF000
1FFFFC00
1C007E00
1C000F80
1C000780
1C0003C0
1C0001E0
1C0000E0
1C000070
1C000070
1C000078
1C000038
FFFE0038
FFFE0038
FFFE0038
1C000038
1C000038
1C000038
1C000070
1C000070
1C0000F0
1C0000E0
1C0001E0
1C0003C0
1C000780
1C000F00
1C007E00
1FFFFC00
1FFFF000
1FFF8000
ENDCHAR
STARTCHAR 0111
ENCODING 273
SWIDTH 696 0
DWIDTH 29 0
BBX 27 32 2 -1
BITMAP
00000700
00000700
00000700
0001FFE0
0001FFE0
0001FFE0
00000700
007E0700
01FF8700
07FFE700
0F81F700
1E007F00
3C003F00
38001F00
70000F00
70000F00
E0000700
E0000700
E0000700
E0000700
E0000700
E0000700
E0000700
70000F00
70000F00
78001F00
3C003F00
1E007F00
0F81F700
07FFE700
03FF8700
007E0000
ENDCHAR
STARTCHAR 0112
ENCODING 274
SWIDTH 528 0
DWIDTH 22 0
BBX 17 38 3 0
BITMAP
7FFE00
7FFE00
7FFE00
000000
000000
000000
000000
FFFF80
FFFF80
FFFF80
E00000
E00000
E00000
E00000
E00000
E00000
E00000
E00000
E00000
E00000
E00000
FFFF00
FFFF00
FFFF00
E00000
E00000
E00000
E00000
E00000
E00000
E00000
E00000
E00000
E00000
E00000
FFFF80
FFFF80
FFFF80
ENDCHAR
STARTCHAR 0113
ENCODING 275
SWIDTH 648 0
DWIDTH 27 0
BBX 24 32 2 -1
BITMAP
07FFE0
07FFE0
07FFE0
000000
000000
000000
000000
007C00
03FF80
07FFE0
0F83F0
1E00F8
3C0038
38001C
70001C
70000E
E0000E
E0000E
FFFFFE
FFFFFF
FFFFFF
E00000
E00000
600000
70001E
78001C
3C0038
1E0078
0F81F0
07FFE0
03FF80
007C00
ENDCHAR
STARTCHAR 0116
ENCODING 278
SWIDTH 528 0
DWIDTH 22 0
BBX 17 39 3 0
BITMAP
01C000
01C000
01C000
01C000
01C000
000000
000000
000000
FFFF80
FFFF80
FFFF80
E00000
E00000
E00000
E00000
E00000
E00000
E00000
E00000
E00000
E00000
E00000
FFFF80
FFFF80
FFFF80
E00000
E00000
E00000
E00000
E00000
E00000
E00000
E00000
E00000
E00000
E00000
FFFF80
FFFF80
FFFF80
ENDCHAR
STARTCHAR 0117
ENCODING 279
SWIDTH 648 0
DWIDTH 27 0
BBX 23 33 2 -1
BITMAP
003800
003800
003800
003800
003800
000000
000000
000000
007C00
03FF80
07FFC0
0F83E0
1E00F0
3C0078
38003C
70001C
70000E
E0000E
E0000E
FFFFFE
FFFFFE
FFFFFE
E00000
E00000
600000
70001C
78001C
380038
1E00F0
0F83E0
07FFC0
03FF80
007C00
ENDCHAR
STARTCHAR 0118
ENCODING 280
SWIDTH 528 0
DWIDTH 22 0
BBX 16 39 3 -8
BITMAP
FFFF
FFFF
FFFF
E000
E000
E000
E000
E000
E000
E000
E000
E000
E000
E000
FFFF
FFFF
FFFF
E000
E000
E000
E000
E000
E000
E000
E000
E000
E000
E000
FFFF
FFFF
FFFF
000E
0018
0038
0030
0030
0038
001F
000F
ENDCHAR
STARTCHAR 0119
ENCODING 281
SWIDTH 648 0
DWIDTH 27 0
BBX 23 32 2 -8
BITMAP
007C00
03FF80
07FFC0
0F03E0
1E00F0
380078
380038
70001C
70001C
E0000E
E0000E
FFFFFE
FFFFFE
FFFFFE
E00000
E00000
600000
70001C
780038
380078
1E00F0
1F83E0
07FFC0
03FF00
007C00
003800
003000
006000
006000
007000
003E00
001E00
ENDCHAR
STARTCHAR 011A
ENCODING 282
SWIDTH 528 0
DWIDTH 22 0
BBX 17 39 3 0
BITMAP
781E00
3C3800
0EF000
07E000
03C000
000000
000000
000000
FFFF80
FFFF80
FFFF80
E00000
E00000
E00000
E00000
E00000
E00000
E00000
E00000
E00000
E00000
E00000
FFFF00
FFFF00
FFFF00
E00000
E00000
E00000
E00000
E00000
E00000
E00000
E00000
E00000
E00000
E00000
FFFF80
FFFF80
FFFF80
ENDCHAR
STARTCHAR 011B
ENCODING 283
SWIDTH 648 0
DWIDTH 27 0
BBX 24 33 2 -1
BITMAP
0783C0
03C780
01EF00
00FE00
007800
000000
000000
000000
007C00
03FF80
07FFE0
0F83F0
1E00F8
3C0038
38001C
70001C
70000E
E0000E
E0000E
FFFFFE
FFFFFF
FFFFFF
E00000
E00000
600000
70001E
78001C
3C0038
1E0078
0F81F0
07FFE0
03FF80
007C00
ENDCHAR
STARTCHAR 0122
ENCODING 290
SWIDTH 864 0
DWIDTH 36 0
BBX 33 41 2 -9
BITMAP
0007F00000
003FFE0000
00FFFF8000
01F80FC000
07C003F000
0F8000F800
0E00007800
1C00003C00
3C00001E00
3800000000
7000000000
7000000000
7000000000
E000000000
E000000000
E000000000
E000000000
E000000000
E00FFFFF80
E00FFFFF80
F00FFFFF00
7000000700
7000000F00
3800000E00
3C00001E00
1C00003C00
1E00007800
0F8000F800
07C001F000
03F80FC000
00FFFF8000
003FFE0000
0007F00000
0000000000
0001C00000
0001800000
0003800000
0003800000
0007000000
0007000000
000E000000
ENDCHAR
STARTCHAR 0123
ENCODING 291
SWIDTH 672 0
DWIDTH 28 0
BBX 23 42 2 -9
BITMAP
000E00
000C00
001C00
001800
003800
003800
007000
000000
000000
007C00
03FF8E
07FFCE
0F83EE
1E00FE
3C007E
38003E
70001E
70001E
E0000E
E0000E
E0000E
E0000E
E0000E
E0000E
E0000E
70001E
70001E
78003E
3C007E
1E00FE
0F83EE
07FFCE
03FF8E
007C0E
70001E
38001C
3C003C
1E0078
1F80F8
07FFF0
03FFC0
007F00
ENDCHAR
STARTCHAR 012A
ENCODING 298
SWIDTH 216 0
DWIDTH 9 0
BBX 11 38 -1 0
BITMAP
FFE0
FFE0
FFE0
0000
0000
0000
0000
0E00
0E00
0E00
0E00
0E00
0E00
0E00
0E00
0E00
0E00
0E00
0E00
0E00
0E00
0E00
0E00
0E00
0E00
0E00
0E00
0E00
0E00
0E00
0E00
0E00
0E00
0E00
0E00
0E00
0E00
0E00
ENDCHAR
STARTCHAR 012B
ENCODING 299
SWIDTH 192 0
DWIDTH 8 0
BBX 12 31 -2 0
BITMAP
FFF0
FFF0
FFF0
0000
0000
0000
0000
0000
0700
0700
0700
0700
0700
0700
0700
0700
0700
0700
0700
0700
0700
0700
0700
0700
0700
0700
0700
0700
0700
0700
0700
ENDCHAR
STARTCHAR 012E
ENCODING 302
SWIDTH 216 0
DWIDTH 9 0
BBX 6 39 1 -8
BITMAP
38
38
38
38
38
38
38
38
38
38
38
38
38
38
38
38
38
38
38
38
38
38
38
38
38
38
38
38
38
38
38
30
60
C0
C0
C0
E0
7C
3C
ENDCHAR
STARTCHAR 012F
ENCODING 303
SWIDTH 192 0
DWIDTH 8 0
BBX 7 39 0 -8
BITMAP
1C
1C
1C
1C
1C
00
00
00
1C
1C
1C
1C
1C
1C
1C
1C
1C
1C
1C
1C
1C
1C
1C
1C
1C
1C
1C
1C
1C
1C
1C
30
60
C0
C0
C0
E0
7E
3E
ENDCHAR
STARTCHAR 0136
ENCODING 310
SWIDTH 600 0
DWIDTH 25 0
BBX 21 39 3 -8
BITMAP
E00078
E000F0
E001E0
E003C0
E003C0
E00780
E00F00
E01E00
E03C00
E03800
E07800
E0F000
E1E000
E3C000
E38000
E78000
EFC000
FFE000
FCF000
F8F000
F87800
F03C00
E01E00
E00E00
E00F00
E00780
E003C0
E001E0
E001E0
E000F0
E00078
000000
00C000
01C000
01C000
038000
038000
070000
070000
ENDCHAR
STARTCHAR 0137
ENCODING 311
SWIDTH 504 0
DWIDTH 21 0
BBX 17 39 3 -8
BITMAP
E00000
E00000
E00000
E00000
E00000
E00000
E00000
E00000
E00780
E00F00
E00E00
E01E00
E03C00
E07800
E07000
E0F000
E1E000
E3C000
E38000
E70000
EF8000
FFC000
FDE000
F8F000
F87000
F03800
E03C00
E01E00
E00F00
E00780
E00380
000000
038000
038000
070000
070000
0E0000
0E0000
0C0000
ENDCHAR
STARTCHAR 0139
ENCODING 313
SWIDTH 456 0
DWIDTH 19 0
BBX 16 40 3 0
BITMAP
0040
00E0
03E0
0FC0
3F00
3C00
1000
0000
0000
E000
E000
E000
E000
E000
E000
E000
E000
E000
E000
E000
E000
E000
E000
E000
E000
E000
E000
E000
E000
E000
E000
E000
E000
E000
E000
E000
E000
FFFF
FFFF
FFFF
ENDCHAR
STARTCHAR 013A
ENCODING 314
SWIDTH 192 0
DWIDTH 8 0
BBX 9 40 2 0
BITMAP
0100
0700
1F80
7E00
FC00
F000
C000
0000
0000
7000
7000
7000
7000
7000
7000
7000
7000
7000
7000
7000
7000
7000
7000
7000
7000
7000
7000
7000
7000
7000
7000
7000
7000
7000
7000
7000
7000
7000
7000
7000
ENDCHAR
STARTCHAR 013B
ENCODING 315
SWIDTH 456 0
DWIDTH 19 0
BBX 16 40 3 -9
BITMAP
E000
E000
E000
E000
E000
E000
E000
E000
E000
E000
E000
E000
E000
E000
E000
E000
E000
E000
E000
E000
E000
E000
E000
E000
E000
E000
E000
E000
FFFF
FFFF
FFFF
0000
0000
0380
0300
0700
0700
0E00
0E00
1C00
ENDCHAR
STARTCHAR 013C
ENCODING 316
SWIDTH 192 0
DWIDTH 8 0
BBX 6 40 0 -9
BITMAP
1C
1C
1C
1C
1C
1C
1C
1C
1C
1C
1C
1C
1C
1C
1C
1C
1C
1C
1C
1C
1C
1C
1C
1C
1C
1C
1C
1C
1C
1C
1C
00
00
1C
1C
38
38
70
70
E0
ENDCHAR
STARTCHAR 013D
ENCODING 317
SWIDTH 456 0
DWIDTH 19 0
BBX 16 31 3 0
BITMAP
E00E
E00E
E00C
E01C
E018
E038
E030
E000
E000
E000
E000
E000
E000
E000
E000
E000
E000
E000
E000
E000
E000
E000
E000
E000
E000
E000
E000
E000
FFFF
FFFF
FFFF
ENDCHAR
STARTCHAR 013E
ENCODING 318
SWIDTH 264 0
DWIDTH 11 0
BBX 10 31 3 0
BITMAP
E1C0
E180
E380
E380
E700
E700
EE00
E000
E000
E000
E000
E000
E000
E000
E000
E000
E000
E000
E000
E000
E000
E000
E000
E000
E000
E000
E000
E000
E000
E000
E000
ENDCHAR
STARTCHAR 0141
ENCODING 321
SWIDTH 528 0
DWIDTH 22 0
BBX 19 31 3 0
BITMAP
1C0000
1C0000
1C0000
1C0000
1C0000
1C0000
1C0000
1C0000
1C0000
1C3000
1C7000
1DF000
1FC000
1F8000
1F0000
3C0000
7C0000
FC0000
DC0000
9C0000
1C0000
1C0000
1C0000
1C0000
1C0000
1C0000
1C0000
1C0000
1FFFE0
1FFFE0
1FFFE0
ENDCHAR
STARTCHAR 0142
ENCODING 322
SWIDTH 312 0
DWIDTH 13 0
BBX 9 31 2 0
BITMAP
1C00
1C00
1C00
1C00
1C00
1C00
1C00
1C00
1C00
1C00
1C80
1F80
1F80
1F00
3C00
7C00
FC00
DC00
9C00
1C00
1C00
1C00
1C00
1C00
1C00
1C00
1C00
1C00
1C00
1C00
1C00
ENDCHAR
STARTCHAR 0143
ENCODING 323
SWIDTH 744 0
DWIDTH 31 0
BBX 25 39 3 1
BITMAP
0001C000
0007E000
001F8000
007E0000
00780000
00300000
00000000
00000000
F0000380
F8000380
FC000380
FE000380
EE000380
EF000380
E7800380
E3800380
E3C00380
E1E00380
E0E00380
E0F00380
E0780380
E0380380
E01C0380
E01E0380
E00F0380
E0070380
E0078380
E003C380
E001C380
E001E380
E000F380
E0007380
E0007B80
E0003F80
E0001F80
E0000F80
E0000F80
E0000780
E0000380
ENDCHAR
STARTCHAR 0144
ENCODING 324
SWIDTH 600 0
DWIDTH 25 0
BBX 20 33 3 1
BITMAP
000600
001E00
007E00
00F800
03F000
01C000
010000
000000
000000
00F800
E7FE00
EFFF80
FE0FC0
FC03C0
F801E0
F000E0
F000F0
E00070
E00070
E00070
E00070
E00070
E00070
E00070
E00070
E00070
E00070
E00070
E00070
E00070
E00070
E00070
E00070
ENDCHAR
STARTCHAR 0145
ENCODING 325
SWIDTH 744 0
DWIDTH 31 0
BBX 25 39 3 -8
BITMAP
F0000380
F8000380
FC000380
FE000380
EE000380
EF000380
E7800380
E3800380
E3C00380
E1E00380
E0E00380
E0F00380
E0780380
E0380380
E01C0380
E01E0380
E00F0380
E0070380
E0078380
E003C380
E001C380
E001E380
E000F380
E0007380
E0007B80
E0003F80
E0001F80
E0000F80
E0000F80
E0000780
E0000380
00000000
001C0000
001C0000
00380000
00380000
00700000
00700000
00E00000
ENDCHAR
STARTCHAR 0146
ENCODING 326
SWIDTH 600 0
DWIDTH 25 0
BBX 20 32 3 -8
BITMAP
00F800
E7FE00
EFFF80
FE0FC0
FC03C0
F801E0
F000E0
F000F0
E00070
E00070
E00070
E00070
E00070
E00070
E00070
E00070
E00070
E00070
E00070
E00070
E00070
E00070
E00070
E00070
000000
007000
00E000
00E000
01C000
01C000
038000
038000
ENDCHAR
STARTCHAR 0147
ENCODING 327
SWIDTH 744 0
DWIDTH 31 0
BBX 25 39 3 0
BITMAP
0781E000
01E3C000
00F78000
007F0000
003C0000
00000000
00000000
00000000
F0000380
F8000380
FC000380
FE000380
EE000380
EF000380
E7800380
E3800380
E3C00380
E1E00380
E0E00380
E0F00380
E0780380
E0380380
E01C0380
E01E0380
E00F0380
E0070380
E0078380
E003C380
E001C380
E001E380
E000F380
E0007380
E0007B80
E0003F80
E0001F80
E0000F80
E0000F80
E0000780
E0000380
ENDCHAR
STARTCHAR 0148
ENCODING 328
SWIDTH 600 0
DWIDTH 25 0
BBX 20 32 3 0
BITMAP
1E0700
0F1E00
07BC00
01F800
00F000
000000
000000
000000
00F800
E7FE00
EFFF80
FE0FC0
FC03C0
F801E0
F000E0
F000F0
E00070
E00070
E00070
E00070
E00070
E00070
E00070
E00070
E00070
E00070
E00070
E00070
E00070
E00070
E00070
E00070
ENDCHAR
STARTCHAR 014C
ENCODING 332
SWIDTH 864 0
DWIDTH 36 0
BBX 32 39 2 -1
BITMAP
007FFE00
007FFE00
007FFE00
00000000
00000000
00000000
0007E000
003FFC00
00FFFF00
03F01FC0
07C003E0
0F0001F0
1E000078
1C000038
3C00003C
3800001E
7000000E
7000000E
7000000F
E0000007
E0000007
E0000007
E0000007
E0000007
E0000007
E0000007
F0000007
7000000E
7000000E
3800001C
3C00001C
1C000038
1E000078
0F8000F0
07C003E0
03F80FC0
00FFFF00
003FFC00
0007E000
ENDCHAR
STARTCHAR 014D
ENCODING 333
SWIDTH 648 0
DWIDTH 27 0
BBX 24 32 2 -1
BITMAP
07FFE0
07FFE0
07FFE0
000000
000000
000000
000000
007E00
01FF80
07FFE0
0F81F0
1E0078
3C003C
38001C
70000E
70000E
E00007
E00007
E00007
E00007
E00007
E00007
E00007
70000E
70000E
38001C
3C003C
1E0078
0F81F0
07FFE0
01FF80
007E00
ENDCHAR
STARTCHAR 0150
ENCODING 336
SWIDTH 864 0
DWIDTH 36 0
BBX 32 41 2 0
BITMAP
00002040
0000F0E0
0001E3C0
0003C780
00078F00
000F1E00
000C0C00
00000000
0007E000
003FFC00
00FFFF00
03F01FC0
07C003E0
0F0001F0
1E000078
1C000038
3C00003C
3800001E
7000000E
7000000E
7000000F
E0000007
E0000007
E0000007
E0000007
E0000007
E0000007
E0000007
F0000007
7000000E
7000000E
3800001C
3C00001C
1C000038
1E000078
0F8000F0
07C003E0
03F80FC0
00FFFF00
003FFC00
0007E000
ENDCHAR
STARTCHAR 0151
ENCODING 337
SWIDTH 648 0
DWIDTH 27 0
BBX 24 34 2 0
BITMAP
000C08
001E1C
003C78
0078F0
00F1E0
01C3C0
008180
000000
000000
007E00
01FF80
07FFE0
0F81F0
1E0078
3C003C
38001C
70000E
70000E
E00007
E00007
E00007
E00007
E00007
E00007
E00007
70000E
70000E
38001C
3C003C
1E0078
0F81F0
07FFE0
01FF80
007E00
ENDCHAR
STARTCHAR 0154
ENCODING 340
SWIDTH 600 0
DWIDTH 25 0
BBX 21 40 3 0
BITMAP
000400
001C00
007E00
01F800
03F000
07C000
030000
000000
000000
FFFC00
FFFF00
FFFFC0
E007E0
E001E0
E00070
E00070
E00038
E00038
E00038
E00038
E00038
E00078
E00070
E000F0
E003E0
E3FFC0
E1FF80
E0FE00
E0F000
E07800
E03C00
E01C00
E01E00
E00F00
E00780
E00780
E003C0
E001E0
E000E0
E000F0
ENDCHAR
STARTCHAR 0155
ENCODING 341
SWIDTH 312 0
DWIDTH 13 0
BBX 11 32 3 1
BITMAP
00C0
03E0
0FC0
1F00
3E00
3800
0000
0000
0000
E380
EF80
EF80
FC00
F800
F000
F000
E000
E000
E000
E000
E000
E000
E000
E000
E000
E000
E000
E000
E000
E000
E000
E000
ENDCHAR
STARTCHAR 0156
ENCODING 342
SWIDTH 600 0
DWIDTH 25 0
BBX 21 39 3 -8
BITMAP
FFFC00
FFFF00
FFFFC0
E007E0
E001E0
E00070
E00070
E00038
E00038
E00038
E00038
E00038
E00078
E00070
E000F0
E003E0
E3FFC0
E1FF80
E0FE00
E0F000
E07800
E03C00
E01C00
E01E00
E00F00
E00780
E00780
E003C0
E001E0
E000E0
E000F0
000000
006000
00E000
00C000
01C000
018000
038000
030000
ENDCHAR
STARTCHAR 0157
ENCODING 343
SWIDTH 312 0
DWIDTH 13 0
BBX 11 32 1 -9
BITMAP
38E0
3BE0
3BE0
3F00
3E00
3C00
3C00
3800
3800
3800
3800
3800
3800
3800
3800
3800
3800
3800
3800
3800
3800
3800
3800
0000
0000
1800
3800
3800
7000
7000
E000
E000
ENDCHAR
STARTCHAR 0158
ENCODING 344
SWIDTH 600 0
DWIDTH 25 0
BBX 21 39 3 0
BITMAP
1E0700
0F1E00
07BC00
03F800
01F000
000000
000000
000000
FFFC00
FFFF00
FFFFC0
E007E0
E001E0
E00070
E00070
E00038
E00038
E00038
E00038
E00038
E00078
E00070
E000F0
E003E0
E3FFC0
E1FF80
E0FE00
E0F000
E07800
E03C00
E01C00
E01E00
E00F00
E00780
E00780
E003C0
E001E0
E000E0
E000F0
ENDCHAR
STARTCHAR 0159
ENCODING 345
SWIDTH 312 0
DWIDTH 13 0
BBX 13 32 1 0
BITMAP
F038
78F0
3DE0
1FC0
0780
0000
0000
0000
0000
38E0
3BE0
3BE0
3F00
3E00
3C00
3C00
3800
3800
3800
3800
3800
3800
3800
3800
3800
3800
3800
3800
3800
3800
3800
3800
ENDCHAR
STARTCHAR 015A
ENCODING 346
SWIDTH 504 0
DWIDTH 21 0
BBX 19 41 1 0
BITMAP
000C00
003C00
007E00
01F800
07E000
078000
020000
000000
01F000
07FC00
0FFE00
1E0F00
3C0780
380380
7003C0
7001C0
7001C0
700000
700000
780000
3C0000
3F0000
1FE000
07FC00
01FE00
003F80
000780
0003C0
0001C0
0000E0
0000E0
0000E0
E000E0
E000E0
7001C0
7001C0
7803C0
3E0F80
1FFF00
0FFC00
01F000
ENDCHAR
STARTCHAR 015B
ENCODING 347
SWIDTH 384 0
DWIDTH 16 0
BBX 14 34 1 0
BITMAP
0060
01F0
03E0
0FC0
1F00
1C00
0800
0000
0000
0780
1FE0
3FF0
3870
7038
7038
7038
7000
7800
3C00
3F00
1FE0
07F0
01F8
0078
003C
001C
E01C
E01C
E01C
7038
7878
3FF0
1FE0
0780
ENDCHAR
STARTCHAR 0160
ENCODING 352
SWIDTH 504 0
DWIDTH 21 0
BBX 19 40 1 -1
BITMAP
1C0F00
0F1E00
07BC00
03F800
01E000
000000
000000
01F000
07FC00
0FFE00
1E0F00
3C0780
380380
7003C0
7001C0
7001C0
700000
700000
780000
3C0000
3F0000
1FE000
07FC00
01FE00
003F80
000780
0003C0
0001C0
0000E0
0000E0
0000E0
E000E0
E000E0
7001C0
7001C0
7803C0
3E0F80
1FFF00
0FFC00
01F000
ENDCHAR
STARTCHAR 0161
ENCODING 353
SWIDTH 384 0
DWIDTH 16 0
BBX 14 33 1 -1
BITMAP
F038
7870
1DE0
0FC0
0780
0000
0000
0000
0780
1FE0
3FF0
3870
7038
7038
7038
7000
7800
3C00
3F00
1FE0
07F0
01F8
0078
003C
001C
E01C
E01C
E01C
7038
7878
3FF0
1FE0
0780
ENDCHAR
STARTCHAR 0162
ENCODING 354
SWIDTH 432 0
DWIDTH 18 0
BBX 17 40 0 -9
BITMAP
FFFF80
FFFF80
FFFF80
01C000
01C000
01C000
01C000
01C000
01C000
01C000
01C000
01C000
01C000
01C000
01C000
01C000
01C000
01C000
01C000
01C000
01C000
01C000
01C000
01C000
01C000
01C000
01C000
01C000
01C000
01C000
01C000
000000
000000
01C000
01C000
038000
038000
030000
070000
060000
ENDCHAR
STARTCHAR 0163
ENCODING 355
SWIDTH 336 0
DWIDTH 14 0
BBX 13 40 0 -9
BITMAP
0700
0700
0700
0700
0700
0700
0700
0700
FFF8
FFF8
FFF8
0700
0700
0700
0700
0700
0700
0700
0700
0700
0700
0700
0700
0700
0700
0700
0700
0700
0700
0700
0700
0000
0000
0300
0700
0600
0E00
0C00
1C00
1C00
ENDCHAR
STARTCHAR 0164
ENCODING 356
SWIDTH 432 0
DWIDTH 18 0
BBX 17 39 0 0
BITMAP
381E00
1E3C00
0F7800
07E000
03C000
000000
000000
000000
FFFF80
FFFF80
FFFF80
01C000
01C000
01C000
01C000
01C000
01C000
01C000
01C000
01C000
01C000
01C000
01C000
01C000
01C000
01C000
01C000
01C000
01C000
01C000
01C000
01C000
01C000
01C000
01C000
01C000
01C000
01C000
01C000
ENDCHAR
STARTCHAR 0165
ENCODING 357
SWIDTH 360 0
DWIDTH 15 0
BBX 16 32 0 0
BITMAP
0007
0706
070E
070C
071C
0718
0738
0700
0700
FFF8
FFF8
FFF8
0700
0700
0700
0700
0700
0700
0700
0700
0700
0700
0700
0700
0700
0700
0700
0700
0700
0700
0700
0700
ENDCHAR
STARTCHAR 016A
ENCODING 362
SWIDTH 648 0
DWIDTH 27 0
BBX 21 39 3 -1
BITMAP
1FFFC0
1FFFC0
1FFFC0
000000
000000
000000
000000
E00038
E00038
E00038
E00038
E00038
E00038
E00038
E00038
E00038
E00038
E00038
E00038
E00038
E00038
E00038
E00038
E00038
E00038
E00038
E00038
E00038
E00038
E00038
E00038
700070
700070
7800F0
3C01E0
1F07C0
0FFF80
07FF00
00F800
ENDCHAR
STARTCHAR 016B
ENCODING 363
SWIDTH 600 0
DWIDTH 25 0
BBX 20 32 3 -1
BITMAP
1FFF80
1FFF80
1FFF80
000000
000000
000000
000000
000000
E00070
E00070
E00070
E00070
E00070
E00070
E00070
E00070
E00070
E00070
E00070
E00070
E00070
E00070
E00070
E00070
E000F0
7000F0
7001F0
7803F0
3E0770
1FFF70
0FFC70
01F000
ENDCHAR
STARTCHAR 016E
ENCODING 366
SWIDTH 648 0
DWIDTH 27 0
BBX 21 42 3 -1
BITMAP
007000
01FC00
01FC00
038E00
030600
030600
038E00
01FC00
01FC00
007000
E00038
E00038
E00038
E00038
E00038
E00038
E00038
E00038
E00038
E00038
E00038
E00038
E00038
E00038
E00038
E00038
E00038
E00038
E00038
E00038
E00038
E00038
E00038
E00038
700070
700070
7800F0
3C01E0
1F07C0
0FFF80
07FF00
00F800
ENDCHAR
STARTCHAR 016F
ENCODING 367
SWIDTH 600 0
DWIDTH 25 0
BBX 20 36 3 -1
BITMAP
00E000
03F800
03F800
071C00
060C00
060C00
071C00
03F800
03F800
00E000
000000
000000
E00070
E00070
E00070
E00070
E00070
E00070
E00070
E00070
E00070
E00070
E00070
E00070
E00070
E00070
E00070
E00070
E000F0
7000F0
7001F0
7803F0
3E0F70
1FFF70
0FFC70
03F000
ENDCHAR
STARTCHAR 0170
ENCODING 368
SWIDTH 648 0
DWIDTH 27 0
BBX 21 41 3 -1
BITMAP
000020
003070
00F8F0
01E1E0
03C780
078F00
070E00
000400
000000
E00038
E00038
E00038
E00038
E00038
E00038
E00038
E00038
E00038
E00038
E00038
E00038
E00038
E00038
E00038
E00038
E00038
E00038
E00038
E00038
E00038
E00038
E00038
E00038
700070
700070
7800F0
3C01E0
1F07C0
0FFF80
07FF00
00F800
ENDCHAR
STARTCHAR 0171
ENCODING 369
SWIDTH 600 0
DWIDTH 25 0
BBX 20 34 3 0
BITMAP
002060
0070F0
00F1E0
03C3C0
078780
0F1E00
060C00
040000
000000
000000
E00070
E00070
E00070
E00070
E00070
E00070
E00070
E00070
E00070
E00070
E00070
E00070
E00070
E00070
E00070
E00070
E000F0
7000F0
7001F0
7803F0
3E0770
1FFF70
0FFC70
01F000
ENDCHAR
STARTCHAR 0172
ENCODING 370
SWIDTH 648 0
DWIDTH 27 0
BBX 21 39 3 -8
BITMAP
E00038
E00038
E00038
E00038
E00038
E00038
E00038
E00038
E00038
E00038
E00038
E00038
E00038
E00038
E00038
E00038
E00038
E00038
E00038
E00038
E00038
E00038
E00038
E00038
700070
700070
7800F0
3C01E0
1F07C0
0FFF80
07FE00
00F800
007000
006000
00C000
00C000
00E000
007E00
003E00
ENDCHAR
STARTCHAR 0173
ENCODING 371
SWIDTH 600 0
DWIDTH 25 0
BBX 21 31 3 -8
BITMAP
E00070
E00070
E00070
E00070
E00070
E00070
E00070
E00070
E00070
E00070
E00070
E00070
E00070
E00070
E00070
E00070
E000F0
7000F0
7001F0
7803F0
3E0770
1FFF70
0FFC70
01F0E0
000180
000380
000300
000300
000380
0001F8
0000F8
ENDCHAR
STARTCHAR 0179
ENCODING 377
SWIDTH 480 0
DWIDTH 20 0
BBX 19 39 1 1
BITMAP
001C00
007C00
01F800
07E000
078000
030000
000000
000000
FFFFE0
FFFFE0
FFFFE0
0001E0
0003C0
000380
000780
000F00
000F00
001E00
001C00
003C00
007800
007000
00F000
00E000
01E000
03C000
038000
078000
070000
0F0000
1E0000
1C0000
3C0000
380000
780000
F00000
FFFFE0
FFFFE0
FFFFE0
ENDCHAR
STARTCHAR 017A
ENCODING 378
SWIDTH 432 0
DWIDTH 18 0
BBX 17 33 0 1
BITMAP
001800
007800
00FC00
03F000
0FC000
0F0000
040000
000000
000000
000000
FFFF00
FFFF00
FFFF00
000F00
001E00
001C00
003C00
007800
007000
00E000
01E000
03C000
038000
078000
0F0000
0E0000
1C0000
3C0000
780000
700000
FFFF80
FFFF80
FFFF80
ENDCHAR
STARTCHAR 017B
ENCODING 379
SWIDTH 480 0
DWIDTH 20 0
BBX 19 39 0 0
BITMAP
00E000
00E000
00E000
00E000
00E000
000000
000000
000000
7FFFE0
7FFFE0
7FFFE0
0001C0
0003C0
000380
000700
000F00
000E00
001E00
001C00
003800
007800
007000
00F000
00E000
01C000
03C000
038000
078000
070000
0F0000
1E0000
1C0000
3C0000
380000
780000
700000
FFFFE0
FFFFE0
FFFFE0
ENDCHAR
STARTCHAR 017C
ENCODING 380
SWIDTH 432 0
DWIDTH 18 0
BBX 17 32 0 0
BITMAP
01C000
01C000
01C000
01C000
01C000
000000
000000
000000
000000
7FFF00
7FFF00
7FFF00
000F00
001E00
001C00
003800
007800
007000
00E000
01E000
03C000
038000
078000
0F0000
0E0000
1C0000
3C0000
380000
700000
FFFF80
FFFF80
FFFF80
ENDCHAR
STARTCHAR 017D
ENCODING 381
SWIDTH 480 0
DWIDTH 20 0
BBX 19 39 1 0
BITMAP
3C0F00
0F1E00
07BC00
03F000
01E000
000000
000000
000000
FFFFE0
FFFFE0
FFFFE0
0001E0
0003C0
000780
000780
000F00
000F00
001E00
001C00
003C00
007800
007000
00F000
00E000
01E000
03C000
038000
078000
070000
0F0000
1E0000
1C0000
3C0000
380000
780000
F00000
FFFFE0
FFFFE0
FFFFE0
ENDCHAR
STARTCHAR 017E
ENCODING 382
SWIDTH 432 0
DWIDTH 18 0
BBX 17 32 0 0
BITMAP
781E00
1E3C00
0F7800
07F000
03C000
000000
000000
000000
000000
FFFF00
FFFF00
FFFF00
000F00
001E00
001C00
003800
007800
007000
00E000
01E000
03C000
038000
078000
0F0000
0E0000
1C0000
3C0000
780000
700000
FFFF80
FFFF80
FFFF80
ENDCHAR
STARTCHAR 0218
ENCODING 536
SWIDTH 504 0
DWIDTH 21 0
BBX 19 41 1 -9
BITMAP
01F000
07FC00
0FFE00
1E0F00
3C0780
380380
7003C0
7001C0
7001C0
700000
700000
780000
3C0000
3F0000
1FE000
07FC00
01FE00
003F80
000780
0003C0
0001C0
0000E0
0000E0
0000E0
E000E0
E000E0
7001C0
7001C0
7803C0
3E0F80
1FFF00
0FFC00
01F000
000000
00E000
00E000
01C000
01C000
038000
038000
070000
ENDCHAR
STARTCHAR 0219
ENCODING 537
SWIDTH 384 0
DWIDTH 16 0
BBX 14 33 1 -9
BITMAP
0780
1FE0
3FF0
3870
7038
7038
7038
7000
7800
3C00
3F00
1FE0
07F0
01F8
0078
003C
001C
E01C
E01C
E01C
7038
7878
3FF0
1FE0
0780
0000
0380
0300
0700
0600
0E00
0C00
1C00
ENDCHAR
STARTCHAR 021A
ENCODING 538
SWIDTH 432 0
DWIDTH 18 0
BBX 17 40 0 -9
BITMAP
FFFF80
FFFF80
FFFF80
01C000
01C000
01C000
01C000
01C000
01C000
01C000
01C000
01C000
01C000
01C000
01C000
01C000
01C000
01C000
01C000
01C000
01C000
01C000
01C000
01C000
01C000
01C000
01C000
01C000
01C000
01C000
01C000
000000
000000
01C000
01C000
038000
038000
030000
070000
060000
ENDCHAR
STARTCHAR 021B
ENCODING 539
SWIDTH 336 0
DWIDTH 14 0
BBX 13 40 0 -9
BITMAP
0700
0700
0700
0700
0700
0700
0700
0700
FFF8
FFF8
FFF8
0700
0700
0700
0700
0700
0700
0700
0700
0700
0700
0700
0700
0700
0700
0700
0700
0700
0700
0700
0700
0000
0000
0300
0700
0600
0E00
0C00
1C00
1C00
ENDCHAR
STARTCHAR 02C7
ENCODING 711
SWIDTH 504 0
DWIDTH 21 0
BBX 13 5 4 27
BITMAP
F038
78F0
3DE0
1FC0
0F80
ENDCHAR
STARTCHAR 02D8
ENCODING 728
SWIDTH 456 0
DWIDTH 19 0
BBX 15 5 2 27
BITMAP
E00E
783C
7FFC
1FF0
07C0
ENDCHAR
STARTCHAR 02D9
ENCODING 729
SWIDTH 216 0
DWIDTH 9 0
BBX 3 5 3 27
BITMAP
E0
E0
E0
E0
E0
ENDCHAR
STARTCHAR 02DB
ENCODING 731
SWIDTH 312 0
DWIDTH 13 0
BBX 6 8 3 -7
BITMAP
30
60
E0
C0
C0
E0
7C
3C
ENDCHAR
STARTCHAR 02DD
ENCODING 733
SWIDTH 552 0
DWIDTH 23 0
BBX 16 7 5 26
BITMAP
0202
070F
0F1E
1E3C
7878
F0F0
60C0
ENDCHAR
STARTCHAR 0394
ENCODING 916
SWIDTH 624 0
DWIDTH 26 0
BBX 25 28 0 1
BITMAP
00040000
000C0000
000E0000
001E0000
001E0000
003F0000
003F0000
006F8000
00678000
0047C000
00C3C000
0083C000
0183E000
0101E000
0301F000
0300F000
0600F000
0600F800
0C007800
0C007C00
18003C00
18003C00
10003E00
30001E00
20001F00
60000F00
7FFFFF00
FFFFFF80
ENDCHAR
STARTCHAR 03BC
ENCODING 956
SWIDTH 600 0
DWIDTH 25 0
BBX 19 31 3 -9
BITMAP
E000E0
E000E0
E000E0
E000E0
E000E0
E000E0
E000E0
E000E0
E000E0
E000E0
E000E0
E000E0
E000E0
E000E0
E000E0
E000E0
F000E0
F001E0
F801E0
FC03E0
FE0FE0
EFFEE0
E7FCE0
E1F000
E00000
E00000
E00000
E00000
E00000
E00000
E00000
ENDCHAR
STARTCHAR 2013
ENCODING 8211
SWIDTH 504 0
DWIDTH 21 0
BBX 18 3 1 10
BITMAP
FFFFC0
FFFFC0
FFFFC0
ENDCHAR
STARTCHAR 2014
ENCODING 8212
SWIDTH 1008 0
DWIDTH 42 0
BBX 39 3 1 10
BITMAP
FFFFFFFFFE
FFFFFFFFFE
FFFFFFFFFE
ENDCHAR
STARTCHAR 2018
ENCODING 8216
SWIDTH 360 0
DWIDTH 15 0
BBX 7 8 4 22
BITMAP
E0
70
70
38
38
1C
1C
1E
ENDCHAR
STARTCHAR 2019
ENCODING 8217
SWIDTH 360 0
DWIDTH 15 0
BBX 6 8 5 22
BITMAP
1C
38
38
70
70
F0
E0
E0
ENDCHAR
STARTCHAR 201A
ENCODING 8218
SWIDTH 360 0
DWIDTH 15 0
BBX 7 8 4 -3
BITMAP
0E
1C
1C
38
38
70
70
F0
ENDCHAR
STARTCHAR 201C
ENCODING 8220
SWIDTH 504 0
DWIDTH 21 0
BBX 13 8 4 22
BITMAP
E3C0
71C0
71C0
38E0
38E0
3C70
1C70
1E38
ENDCHAR
STARTCHAR 201D
ENCODING 8221
SWIDTH 480 0
DWIDTH 20 0
BBX 13 8 4 22
BITMAP
0E38
1C70
1C70
38E0
38E0
71E0
71C0
E3C0
ENDCHAR
STARTCHAR 201E
ENCODING 8222
SWIDTH 504 0
DWIDTH 21 0
BBX 13 8 4 -3
BITMAP
1E38
1C70
1C70
38E0
38E0
71C0
71C0
E3C0
ENDCHAR
STARTCHAR 2020
ENCODING 8224
SWIDTH 552 0
DWIDTH 23 0
BBX 18 36 2 -6
BITMAP
00E000
00E000
00E000
00E000
00E000
00E000
00E000
00E000
FFFFC0
FFFFC0
FFFFC0
00E000
00E000
00E000
00E000
00E000
00E000
00E000
00E000
00E000
00E000
00E000
00E000
00E000
00E000
00E000
00E000
00E000
00E000
00E000
00E000
00E000
00E000
00E000
00E000
00E000
ENDCHAR
STARTCHAR 2021
ENCODING 8225
SWIDTH 552 0
DWIDTH 23 0
BBX 18 36 2 -6
BITMAP
00E000
00E000
00E000
00E000
00E000
00E000
00E000
00E000
FFFFC0
FFFFC0
FFFFC0
00E000
00E000
00E000
00E000
00E000
00E000
00E000
00E000
00E000
00E000
00E000
00E000
00E000
00E000
FFFFC0
FFFFC0
FFFFC0
00E000
00E000
00E000
00E000
00E000
00E000
00E000
00E000
ENDCHAR
STARTCHAR 2022
ENCODING 8226
SWIDTH 600 0
DWIDTH 25 0
BBX 13 13 6 9
BITMAP
0F80
3FE0
7FF0
7FF0
FFF8
FFF8
FFF8
FFF8
FFF8
7FF0
7FF0
3FE0
0F80
ENDCHAR
STARTCHAR 2026
ENCODING 8230
SWIDTH 1008 0
DWIDTH 42 0
BBX 31 5 5 1
BITMAP
E003800E
E003800E
E003800E
E003800E
E003800E
ENDCHAR
STARTCHAR 2030
ENCODING 8240
SWIDTH 1176 0
DWIDTH 49 0
BBX 47 33 1 -1
BITMAP
07E000800000
1FF803800000
3FFC03000000
7C3E07000000
700E06000000
F00F0C000000
E0070C000000
E00718000000
E00738000000
E00730000000
700F70000000
700E60000000
3C3CE0000000
3FFCC0000000
0FF1C0000000
03C180000000
000380000000
00070FC007C0
00063FF01FF0
000E7FF83FF8
000CF87C783C
001CE01C701C
0019E01EE00E
0039C00EE00E
0031C00EE00E
0071C00EE00E
00E1C00EE00E
00E0E01EF01E
01C0E01C701C
01C0787C7C3C
03807FF83FF8
03001FE01FF0
0000078007C0
ENDCHAR
STARTCHAR 2039
ENCODING 8249
SWIDTH 240 0
DWIDTH 10 0
BBX 7 17 2 3
BITMAP
0C
0E
1C
1C
38
38
70
F0
E0
F0
70
38
38
1C
1C
0E
08
ENDCHAR
STARTCHAR 203A
ENCODING 8250
SWIDTH 240 0
DWIDTH 10 0
BBX 7 17 2 3
BITMAP
60
E0
70
70
38
38
1C
1C
0E
1C
1C
38
38
70
70
E0
20
ENDCHAR
STARTCHAR 20AC
ENCODING 8364
SWIDTH 552 0
DWIDTH 23 0
BBX 20 33 1 -1
BITMAP
001F00
007FE0
01FFF0
03E070
038010
070000
070000
0E0000
0E0000
0C0000
1C0000
1C0000
7FFFC0
7FFFC0
FFFF80
1C0000
1C0000
1C0000
7FFF00
7FFF00
FFFF00
1C0000
1C0000
0C0000
0E0000
0E0000
070000
070000
038010
03E070
01FFF0
00FFE0
001F00
ENDCHAR
STARTCHAR 2122
ENCODING 8482
SWIDTH 1008 0
DWIDTH 42 0
BBX 34 19 0 12
BITMAP
FFE38001C0
FFE3C003C0
0603C003C0
0603E007C0
06036006C0
0603600EC0
0603300CC0
0603300CC0
06033818C0
06031818C0
06031C38C0
06030C30C0
06030E70C0
06030660C0
060306E0C0
060307C0C0
060303C0C0
060303C0C0
06030180C0
ENDCHAR
STARTCHAR 2202
ENCODING 8706
SWIDTH 480 0
DWIDTH 20 0
BBX 18 32 1 -2
BITMAP
0FC000
3FF000
383800
000C00
000E00
000700
000300
000380
000380
000180
0001C0
0001C0
0001C0
0001C0
03C1C0
0FF9C0
1E0DC0
3C07C0
7803C0
7003C0
7003C0
E003C0
E00780
E00780
E00780
E00F00
E00F00
601E00
701C00
303C00
1CF000
07C000
ENDCHAR
STARTCHAR 2206
ENCODING 8710
SWIDTH 624 0
DWIDTH 26 0
BBX 25 28 0 1
BITMAP
00040000
000C0000
000E0000
001E0000
001E0000
003F0000
003F0000
006F8000
00678000
0047C000
00C3C000
0083C000
0183E000
0101E000
0301F000
0300F000
0600F000
0600F800
0C007800
0C007C00
18003C00
18003C00
10003E00
30001E00
20001F00
60000F00
7FFFFF00
FFFFFF80
ENDCHAR
STARTCHAR 2211
ENCODING 8721
SWIDTH 600 0
DWIDTH 25 0
BBX 23 30 1 0
BITMAP
FFFFF8
7FFFF8
3FFFF8
1C0018
1E0008
0F0008
078000
03C000
03C000
01E000
00F000
007800
007800
003C00
001E00
000F00
000E00
001C00
003800
007000
00E000
01C000
018000
030002
070002
0E0006
1C0006
3FFFFC
7FFFFC
FFFFFC
ENDCHAR
STARTCHAR 2219
ENCODING 8729
SWIDTH 288 0
DWIDTH 12 0
BBX 3 5 4 8
BITMAP
E0
E0
E0
E0
E0
ENDCHAR
STARTCHAR 221A
ENCODING 8730
SWIDTH 456 0
DWIDTH 19 0
BBX 18 33 0 -1
BITMAP
0000C0
0001C0
0001C0
000180
000180
000180
000180
000380
000380
000380
000300
000300
000300
0C0300
3C0700
EE0700
060600
070600
070600
030600
038E00
018E00
01CC00
00CC00
00EC00
006C00
007C00
003C00
003C00
001800
001800
000800
000800
ENDCHAR
STARTCHAR 2260
ENCODING 8800
SWIDTH 552 0
DWIDTH 23 0
BBX 22 23 1 0
BITMAP
000180
0001C0
0003C0
000380
000780
000F00
FFFFFC
FFFFFC
FFFFFC
003C00
007800
007000
00F000
00E000
FFFFFC
FFFFFC
FFFFFC
078000
070000
0F0000
0E0000
1E0000
040000
ENDCHAR
STARTCHAR 2264
ENCODING 8804
SWIDTH 552 0
DWIDTH 23 0
BBX 21 27 1 1
BITMAP
000038
0000F8
0003F8
000FE0
007F00
01FC00
07F000
1FC000
FF0000
F80000
F00000
FE0000
3F8000
0FE000
03F800
00FF00
001FC0
0007F0
0001F8
000078
000008
000000
000000
000000
FFFFF8
FFFFF8
FFFFF8
ENDCHAR
STARTCHAR 2265
ENCODING 8805
SWIDTH 552 0
DWIDTH 23 0
BBX 21 27 1 1
BITMAP
E00000
F80000
FE0000
3F8000
0FF000
01FC00
007F00
001FC0
0007F8
0000F8
000078
0003F8
000FE0
003F80
00FE00
07F800
1FC000
7F0000
FC0000
F00000
800000
000000
000000
000000
FFFFF8
FFFFF8
FFFFF8
ENDCHAR
STARTCHAR 25CA
ENCODING 9674
SWIDTH 480 0
DWIDTH 20 0
BBX 18 30 1 1
BITMAP
01E000
01E000
03F000
03F000
073800
073800
0E1C00
0E1C00
1C0E00
1C0E00
380700
380700
700380
700380
E001C0
F003C0
700380
780780
380700
3C0F00
1C0E00
1E1E00
0E1C00
0F3C00
073800
07F800
03F000
03F000
01E000
01E000
ENDCHAR
ENDFONT
